<?xml version="1.0" encoding="utf-8"?>
<!-- Generator: Adobe Illustrator 22.0.0, SVG Export Plug-In . SVG Version: 6.00 Build 0)  -->
<svg version="1.1" id="图层_1" xmlns="http://www.w3.org/2000/svg" xmlns:xlink="http://www.w3.org/1999/xlink" x="0px" y="0px"
	 viewBox="0 0 60 60" style="enable-background:new 0 0 60 60;" xml:space="preserve">
<style type="text/css">
	.st0{fill:#E2E1E0;}
	.st1{fill:#353847;}
	.st2{fill:#B1BABD;}
	.st3{fill:#F9EEF3;}
	.st4{fill:#898886;}
</style>
<g id="XMLID_592_">
</g>
<g id="XMLID_595_">
</g>
<g id="XMLID_596_">
</g>
<g id="XMLID_597_">
</g>
<g id="XMLID_598_">
</g>
<g>
	<path class="st0" d="M68.7,26.5v9.6l-13.4,0c0.1-0.4,0.1-0.7,0.1-1.1c0-0.3,0-0.6-0.1-0.9c-0.1-0.8-0.4-1.5-0.7-2.2l0,0
		c-0.1-0.2-0.2-0.4-0.3-0.5l0,0c-0.5-0.8-1.2-1.4-2-1.9c-0.1-0.1-0.3-0.1-0.4-0.2l0,0C51,28.8,50,28.5,49,28.5
		c-2.2,0-4.1,1.1-5.3,2.7c-0.1,0.2-0.3,0.4-0.4,0.6c-0.4,0.7-0.6,1.4-0.7,2.2c0,0.3-0.1,0.6-0.1,0.9c0,0.3,0,0.6,0.1,0.9l-25.2,0
		c0-0.3,0.1-0.6,0.1-0.9c0-0.3,0-0.6-0.1-0.9c-0.1-0.8-0.4-1.5-0.7-2.2l0-0.1c-0.1-0.2-0.2-0.3-0.3-0.5l0-0.1
		c-1.2-1.7-3.1-2.7-5.3-2.7c-2.2,0-4.1,1.1-5.3,2.7l0,0c-0.1,0.2-0.3,0.4-0.4,0.6l0,0c-0.4,0.7-0.6,1.4-0.7,2.2
		c0,0.3-0.1,0.6-0.1,0.9c0,0.3,0,0.6,0.1,0.9l-5.3,0l0-9l3.9-0.4l15.3-1.8l0.1,0l1-0.1l0.6-0.1v2.7l28.8,0l0-3.4l2.7,0.4l3.9,0.5
		l12,1.6L68.7,26.5z"/>
	<g>
		<path class="st1" d="M16.9,35c0,3.3-2.7,5.9-5.9,5.9C7.7,40.9,5,38.3,5,35C5,31.7,7.7,29,11,29C14.2,29,16.9,31.7,16.9,35z"/>
		<path class="st2" d="M13.8,35c0,1.5-1.2,2.8-2.8,2.8c-1.5,0-2.8-1.2-2.8-2.8s1.2-2.8,2.8-2.8C12.5,32.2,13.8,33.4,13.8,35z"/>
	</g>
	<g>
		<path class="st1" d="M54.9,35c0,3.3-2.7,5.9-5.9,5.9c-3.3,0-5.9-2.7-5.9-5.9c0-3.3,2.7-5.9,5.9-5.9C52.2,29,54.9,31.7,54.9,35z"/>
		<path class="st2" d="M51.7,35c0,1.5-1.2,2.8-2.8,2.8c-1.5,0-2.8-1.2-2.8-2.8c0-1.5,1.2-2.8,2.8-2.8C50.5,32.2,51.7,33.4,51.7,35z"
			/>
	</g>
	<rect x="-0.7" y="29.5" class="st3" width="3.1" height="3.6"/>
	<rect x="17.4" y="34.1" class="st2" width="25.2" height="3.7"/>
	<polygon class="st2" points="4.6,34.1 4.6,37.8 -0.8,37.3 -1.9,37.2 -1.9,34.1 	"/>
	<polygon class="st2" points="69.6,37.2 55.3,37.8 55.3,34.1 69.6,34.1 	"/>
	<polygon class="st0" points="57.2,27.6 15.3,27.6 18.4,24.7 18.4,24.7 26.3,17.5 28.5,15.5 49.7,15.5 55.4,24.7 	"/>
	<polygon class="st4" points="5.3,31.9 2.3,31.9 2.3,31.3 5.7,31.3 	"/>
	<polygon class="st4" points="43.3,31.9 16.7,31.9 16.3,31.3 43.7,31.3 	"/>
	<polygon class="st4" points="68.7,31.9 54.6,31.9 54.2,31.3 68.7,31.3 	"/>
	<polygon class="st1" points="20.6,25.4 34.8,25.4 34.8,17.6 29,17.6 	"/>
	<polygon class="st1" points="52.3,25.4 36.3,25.4 36.3,17.6 47.5,17.6 	"/>
	<polygon class="st1" points="27.2,17.5 19.5,24.6 19.2,24.7 18.5,24.7 18.4,24.7 26.3,17.5 	"/>
	<rect x="65.7" y="29.5" class="st3" width="3.1" height="3.6"/>
	<rect x="34.8" y="17.6" class="st4" width="0.4" height="16.5"/>
	<polygon class="st4" points="52.3,29.5 51.9,29.2 51.9,25.4 52.3,25.4 	"/>
	<rect x="20.6" y="23.9" class="st4" width="0.4" height="10.2"/>
	<path class="st3" d="M24,25.5c0,0.6-0.5,1-1,1l-1.9,0c-0.6,0-1-0.5-1-1l0,0c0-0.6,0.5-1,1-1h1.9C23.5,24.5,24,24.9,24,25.5L24,25.5
		z"/>
	<path class="st1" d="M34,26.8c0,0.2-0.2,0.3-0.3,0.3H31c-0.2,0-0.3-0.2-0.3-0.3l0,0c0-0.2,0.2-0.3,0.3-0.3h2.6
		C33.9,26.5,34,26.6,34,26.8L34,26.8z"/>
	<path class="st1" d="M50.7,26.8c0,0.2-0.2,0.3-0.3,0.3l-2.7,0c-0.2,0-0.3-0.2-0.3-0.3l0,0c0-0.2,0.2-0.3,0.3-0.3h2.7
		C50.5,26.5,50.7,26.7,50.7,26.8L50.7,26.8z"/>
</g>
</svg>
