<?xml version="1.0" encoding="utf-8"?>
<!-- Generator: Adobe Illustrator 22.0.0, SVG Export Plug-In . SVG Version: 6.00 Build 0)  -->
<svg version="1.1" id="图层_1" xmlns="http://www.w3.org/2000/svg" xmlns:xlink="http://www.w3.org/1999/xlink" x="0px" y="0px"
	 viewBox="0 0 60 60" style="enable-background:new 0 0 60 60;" xml:space="preserve">
<style type="text/css">
	.st0{fill:#D0E7EF;}
	.st1{clip-path:url(#SVGID_2_);}
	.st2{fill:#DDF1FC;}
	.st3{fill:#525E6E;}
	.st4{opacity:0.3;}
	.st5{fill:#7C0E19;}
	.st6{fill:#FF8D89;}
</style>
<g id="XMLID_592_">
</g>
<g id="XMLID_595_">
</g>
<g id="XMLID_596_">
</g>
<g id="XMLID_597_">
</g>
<g id="XMLID_598_">
</g>
<g>
	<g>
		<g>
			<g>
				<polygon class="st0" points="29.9,12.9 12,17.4 11.7,16.5 29.7,12.1 				"/>
				<polygon class="st0" points="29.8,12.9 47,17.4 47.2,16.5 30,12.1 				"/>
				<g>
					<g>
						<defs>
							<path id="SVGID_1_" d="M12.6,42.5c-1.3,0-2.4-1.1-2.4-2.4V19c0-1.3,1.1-2.4,2.4-2.4H46c1.3,0,2.4,1.1,2.4,2.4v21.1
								c0,1.3-1.1,2.4-2.4,2.4H12.6z"/>
						</defs>
						<use xlink:href="#SVGID_1_"  style="overflow:visible;fill:#D0E7EF;"/>
						<clipPath id="SVGID_2_">
							<use xlink:href="#SVGID_1_"  style="overflow:visible;"/>
						</clipPath>
						<g class="st1">
							<rect x="10.1" y="13.1" class="st2" width="39.9" height="0.7"/>
							<rect x="10.1" y="15.8" class="st2" width="39.9" height="0.7"/>
							<rect x="10.1" y="43.3" class="st2" width="39.9" height="0.7"/>
							<rect x="10.1" y="46" class="st2" width="39.9" height="0.7"/>
						</g>
					</g>
					<path class="st3" d="M46,17c1.1,0,2,0.9,2,2v21.1c0,1.1-0.9,2-2,2H12.6c-1.1,0-2-0.9-2-2V19c0-1.1,0.9-2,2-2H46L46,17z
						 M46,16.2H12.6c-1.5,0-2.8,1.2-2.8,2.8v21.1c0,1.5,1.2,2.8,2.8,2.8H46c1.5,0,2.8-1.2,2.8-2.8V19C48.8,17.5,47.6,16.2,46,16.2
						L46,16.2z"/>
					<path class="st3" d="M46,17l-33.4,0c-1.1,0-2,0.9-2,2v0.4c0-1.1,0.9-2,2-2H46c1.1,0,2,0.9,2,2V19C48,17.9,47.1,17,46,17z"/>
					<g class="st4">
						<g>
							<g>
								<path class="st5" d="M15.7,38.3c0,0.3-0.2,0.6-0.5,0.6c-0.3,0-0.5-0.3-0.5-0.6V22.2c0-0.3,0.2-0.6,0.5-0.6
									c0.3,0,0.5,0.3,0.5,0.6V38.3z"/>
								<path class="st5" d="M14.5,22.3c-0.3,0-0.5-0.2-0.3-0.5l0.7-1.2c0.2-0.3,0.5-0.3,0.6,0l0.7,1.2c0.2,0.3,0,0.5-0.3,0.5H14.5z
									"/>
							</g>
							<g>
								<path class="st5" d="M15.5,38.9c-0.3,0-0.6-0.2-0.6-0.5c0-0.3,0.3-0.5,0.6-0.5l27.8,0c0.3,0,0.6,0.2,0.6,0.5
									c0,0.3-0.3,0.5-0.6,0.5L15.5,38.9z"/>
								<path class="st5" d="M43.4,37.8c0-0.3,0.2-0.5,0.5-0.3l1.2,0.7c0.3,0.2,0.3,0.5,0,0.6l-1.2,0.7c-0.3,0.2-0.5,0-0.5-0.3V37.8
									z"/>
							</g>
						</g>
						<g>
							<path class="st5" d="M15.4,37.6c-0.1,0.1-0.1,0.4,0.1,0.5c0.2,0.2,0.4,0.2,0.5,0.1l4.6-4.6c0.1-0.1,0.1-0.4-0.1-0.5
								c-0.2-0.2-0.4-0.2-0.5-0.1L15.4,37.6z"/>
							<path class="st5" d="M21.8,35.6c0.1,0.1,0.4,0.1,0.5-0.1c0.2-0.2,0.2-0.4,0.1-0.5l-2-2c-0.1-0.1-0.4-0.1-0.5,0.1
								c-0.2,0.2-0.2,0.4-0.1,0.5L21.8,35.6z"/>
							<path class="st5" d="M25.6,32.2c0.1-0.1,0.1-0.4-0.1-0.5c-0.2-0.2-0.4-0.2-0.5-0.1L21.7,35c-0.1,0.1-0.1,0.4,0.1,0.5
								c0.2,0.2,0.4,0.2,0.5,0.1L25.6,32.2z"/>
							<path class="st5" d="M25.6,31.7c-0.1-0.1-0.4-0.1-0.5,0.1c-0.2,0.2-0.2,0.4-0.1,0.5l3.3,3.3c0.1,0.1,0.4,0.1,0.5-0.1
								c0.2-0.2,0.2-0.4,0.1-0.5L25.6,31.7z"/>
							<path class="st5" d="M28.2,35c-0.1,0.1-0.1,0.4,0.1,0.5c0.2,0.2,0.4,0.2,0.5,0.1l5.7-5.7c0.1-0.1,0.1-0.4-0.1-0.5
								c-0.2-0.2-0.4-0.2-0.5-0.1L28.2,35z"/>
							<path class="st5" d="M36,32.3c0.1,0.1,0.4,0.1,0.5-0.1c0.2-0.2,0.2-0.4,0.1-0.5l-2.3-2.3c-0.1-0.1-0.4-0.1-0.5,0.1
								c-0.2,0.2-0.2,0.4-0.1,0.5L36,32.3z"/>
							<path class="st5" d="M41.8,27c0.1-0.1,0.1-0.4-0.1-0.5c-0.2-0.2-0.4-0.2-0.5-0.1l-5.3,5.3c-0.1,0.1-0.1,0.4,0.1,0.5
								c0.2,0.2,0.4,0.2,0.5,0.1L41.8,27z"/>
						</g>
						<path class="st5" d="M40.6,26.6c-0.3-0.2-0.2-0.5,0.1-0.6l1.3-0.4c0.3-0.1,0.5,0.1,0.5,0.4l-0.3,1.3c-0.1,0.3-0.3,0.4-0.6,0.2
							L40.6,26.6z"/>
					</g>
					<g>
						<g>
							<g>
								<g>
									<path class="st6" d="M15.6,37.8c0,0.3-0.2,0.6-0.5,0.6c-0.3,0-0.5-0.3-0.5-0.6V21.7c0-0.3,0.2-0.6,0.5-0.6
										c0.3,0,0.5,0.3,0.5,0.6V37.8z"/>
									<path class="st6" d="M14.4,21.8c-0.3,0-0.5-0.2-0.3-0.5l0.7-1.2c0.2-0.3,0.5-0.3,0.6,0l0.7,1.2c0.2,0.3,0,0.5-0.3,0.5H14.4
										z"/>
								</g>
								<g>
									<path class="st6" d="M15.4,38.4c-0.3,0-0.6-0.2-0.6-0.5c0-0.3,0.3-0.5,0.6-0.5l27.8,0c0.3,0,0.6,0.2,0.6,0.5
										c0,0.3-0.3,0.5-0.6,0.5L15.4,38.4z"/>
									<path class="st6" d="M43.2,37.3c0-0.3,0.2-0.5,0.5-0.3l1.2,0.7c0.3,0.2,0.3,0.5,0,0.6L43.8,39c-0.3,0.2-0.5,0-0.5-0.3V37.3
										z"/>
								</g>
							</g>
							<g>
								<path class="st6" d="M15.3,37.1c-0.1,0.1-0.1,0.4,0.1,0.5c0.2,0.2,0.4,0.2,0.5,0.1l4.6-4.6c0.1-0.1,0.1-0.4-0.1-0.5
									c-0.2-0.2-0.4-0.2-0.5-0.1L15.3,37.1z"/>
								<path class="st6" d="M21.7,35.1c0.1,0.1,0.4,0.1,0.5-0.1c0.2-0.2,0.2-0.4,0.1-0.5l-2-2c-0.1-0.1-0.4-0.1-0.5,0.1
									c-0.2,0.2-0.2,0.4-0.1,0.5L21.7,35.1z"/>
								<path class="st6" d="M25.5,31.7c0.1-0.1,0.1-0.4-0.1-0.5C25.3,31,25,31,24.9,31.2l-3.3,3.3c-0.1,0.1-0.1,0.4,0.1,0.5
									c0.2,0.2,0.4,0.2,0.5,0.1L25.5,31.7z"/>
								<path class="st6" d="M25.4,31.2c-0.1-0.1-0.4-0.1-0.5,0.1c-0.2,0.2-0.2,0.4-0.1,0.5l3.3,3.4c0.1,0.1,0.4,0.1,0.5-0.1
									s0.2-0.4,0.1-0.5L25.4,31.2z"/>
								<path class="st6" d="M28,34.5c-0.1,0.1-0.1,0.4,0.1,0.5c0.2,0.2,0.4,0.2,0.5,0.1l5.7-5.7c0.1-0.1,0.1-0.4-0.1-0.5
									c-0.2-0.2-0.4-0.2-0.5-0.1L28,34.5z"/>
								<path class="st6" d="M35.9,31.8c0.1,0.1,0.4,0.1,0.5-0.1c0.2-0.2,0.2-0.4,0.1-0.5l-2.3-2.3c-0.1-0.1-0.4-0.1-0.5,0.1
									c-0.2,0.2-0.2,0.4-0.1,0.5L35.9,31.8z"/>
								<path class="st6" d="M41.6,26.5c0.1-0.1,0.1-0.4-0.1-0.5c-0.2-0.2-0.4-0.2-0.5-0.1l-5.3,5.3c-0.1,0.1-0.1,0.4,0.1,0.5
									c0.2,0.2,0.4,0.2,0.5,0.1L41.6,26.5z"/>
							</g>
							<path class="st6" d="M40.5,26.1c-0.3-0.2-0.2-0.5,0.1-0.6l1.3-0.4c0.3-0.1,0.5,0.1,0.5,0.4l-0.3,1.3
								c-0.1,0.3-0.3,0.4-0.6,0.2L40.5,26.1z"/>
						</g>
					</g>
				</g>
				<path class="st3" d="M31.3,12.3c0,0.8-0.7,1.5-1.5,1.5c-0.8,0-1.5-0.7-1.5-1.5c0-0.8,0.7-1.5,1.5-1.5
					C30.6,10.8,31.3,11.5,31.3,12.3z"/>
			</g>
		</g>
	</g>
</g>
</svg>
