<?xml version="1.0" encoding="utf-8"?>
<!-- Generator: Adobe Illustrator 22.0.0, SVG Export Plug-In . SVG Version: 6.00 Build 0)  -->
<svg version="1.1" id="图层_1" xmlns="http://www.w3.org/2000/svg" xmlns:xlink="http://www.w3.org/1999/xlink" x="0px" y="0px"
	 viewBox="0 0 60 60" style="enable-background:new 0 0 60 60;" xml:space="preserve">
<style type="text/css">
	.st0{fill:#CDE4EB;}
	.st1{fill:#B7CBD2;}
	.st2{fill:#EECD70;}
	.st3{fill:#CEAD47;}
	.st4{fill:#D59423;}
	.st5{fill:#D9AD82;}
	.st6{fill:#E9C096;}
	.st7{fill:#CCCABE;}
	.st8{fill:#EDDDCC;}
	.st9{fill:#C9A179;}
	.st10{fill:#B47F64;}
	.st11{fill:#BA936D;}
	.st12{fill:#6C462E;}
	.st13{fill:#4E3321;}
	.st14{fill:#56BFCB;}
	.st15{fill:#1298A8;}
	.st16{fill:none;}
</style>
<g id="XMLID_592_">
</g>
<g id="XMLID_595_">
</g>
<g id="XMLID_596_">
</g>
<g id="XMLID_597_">
</g>
<g id="XMLID_598_">
</g>
<g>
	<path class="st0" d="M18.7,19.5h3.5l0-5c-0.6,0.8-1.9,1.3-3.5,1.3V19.5z"/>
	<path class="st1" d="M15.1,14.4v5h3.5v-3.7C17.1,15.8,15.7,15.2,15.1,14.4z"/>
</g>
<g>
	<path class="st0" d="M13.5,20.1c0,1.7-1.2,3-2.8,3c-1.5,0-2.8-1.4-2.8-3c0-1.7,1.2-3,2.8-3C12.3,17.1,13.5,18.5,13.5,20.1z"/>
	<polygon class="st0" points="8,20.5 8,27.6 11.7,27.6 11.7,22.7 	"/>
	<rect x="11.1" y="22.4" class="st1" width="0.5" height="5.2"/>
</g>
<polygon class="st2" points="11.7,40.9 11.7,47.1 11.7,61.3 17.8,61.3 17.8,47.1 18.7,47.1 18.7,40.9 "/>
<polygon class="st3" points="18.7,40.9 18.7,47.1 19.6,47.1 19.6,61.3 25.7,61.3 25.7,47.1 25.7,40.9 "/>
<rect x="11.7" y="40.9" class="st4" width="7" height="0.8"/>
<rect x="18.7" y="40.9" class="st4" width="7" height="0.8"/>
<g>
	<polygon class="st5" points="22.7,16.1 18.7,22.2 18.7,22.2 18.7,16.3 18.7,10.4 20.7,10.7 20.7,13.5 22.2,14.4 	"/>
</g>
<g>
	<polygon class="st6" points="18.7,16.3 18.7,22.2 18.7,22.2 14.6,16.1 15.1,14.4 16.6,13.6 16.6,10.7 18.7,10.4 18.7,13 	"/>
</g>
<g>
	<path class="st1" d="M23.8,20.1c0,1.7,1.2,3,2.8,3s2.8-1.4,2.8-3c0-1.7-1.2-3-2.8-3S23.8,18.5,23.8,20.1z"/>
	<polygon class="st1" points="29.4,20.5 29.4,27.6 25.7,27.6 25.7,22.7 	"/>
	
		<rect x="25.7" y="22.4" transform="matrix(-1 -1.224647e-16 1.224647e-16 -1 51.8989 50.0854)" class="st7" width="0.5" height="5.2"/>
	<g>
		<path class="st0" d="M14.6,14.7l-5.2,2.8l1.3,3l0.9-0.5v2.7v18.2h7V18.5C16.6,18.5,14.9,16.8,14.6,14.7z"/>
		<path class="st1" d="M18.7,18.5v-0.7c0,0-3.1,0-3.5-3.3l-0.5,0.3C14.9,16.8,16.6,18.5,18.7,18.5z"/>
		<path class="st1" d="M22.7,14.7c-0.3,2.1-2,3.8-4.1,3.8v22.4h7V22.7V20l0.9,0.5l1.3-3L22.7,14.7z"/>
		<path class="st1" d="M18.7,17.8v0.7c2,0,3.7-1.6,4.1-3.8l-0.5-0.3C21.7,17.8,18.7,17.8,18.7,17.8z"/>
	</g>
</g>
<path class="st8" d="M16.6,10.6l2.2-0.3l0,2.6c-0.9,0-1.7-0.4-2.2-1.1V10.6z"/>
<path class="st8" d="M21.1,10.6v1.2c-0.5,0.7-1.3,1.1-2.2,1.1h0v-2.6L21.1,10.6z"/>
<g>
	<g>
		<g>
			<g>
				<path class="st6" d="M18.8,3.1l0,9.4c-1.8,0-2.9-1.7-3.3-3.5c0,0,0,0,0,0c0-0.2-0.1-0.3-0.1-0.5c-0.1-0.4-0.1-0.9-0.1-1.3
					c0-0.4,0-0.9,0.1-1.2c0-0.2,0.1-0.4,0.1-0.5c0-0.1,0.1-0.3,0.2-0.4C16.4,3.9,17.4,3.1,18.8,3.1z"/>
			</g>
		</g>
		<g>
			<g>
				<path class="st5" d="M22.3,7.2c0,0.4,0,0.8-0.1,1.2c0,0.2-0.1,0.3-0.1,0.5c0,0.2-0.1,0.4-0.1,0.6c0,0,0,0.1,0,0.1
					c-0.1,0.4-0.3,0.7-0.4,1.1c-0.6,1.1-1.4,1.9-2.7,1.8l0-9.4c0.6,0,1,0.1,1.5,0.3C21,3.7,21.5,4.3,21.9,5c0,0,0,0,0,0
					C21.9,5.2,22,5.3,22,5.5v0c0,0,0,0,0,0c0,0.1,0.1,0.2,0.1,0.4c0,0.1,0.1,0.3,0.1,0.4C22.3,6.6,22.3,6.9,22.3,7.2z"/>
			</g>
		</g>
	</g>
	<g>
		<path class="st9" d="M18.8,1.7c-5.3,0-3.4,6.7-3.4,6.7c-0.2-0.7-0.1-1.1,0.2-1.6C16,6.1,16.7,6,16.7,6c1-0.2,1.7-0.5,2.1-0.9V3.3
			l0,0V1.7z"/>
		<path class="st10" d="M18.8,1.7v1.5l0,0v1.8c1.1-0.8,1-1.7,1-1.7l0,0c0,0,0.4,1.1,1.7,2.6c0,0,0.6,0.7,0.6,1.9c0,0.2,0,0.3,0,0.4
			C22.2,8.3,24.1,1.7,18.8,1.7z"/>
	</g>
</g>
<g>
	<g>
		<rect x="25.7" y="27.6" class="st5" width="2.9" height="15"/>
		
			<rect x="25.7" y="27.6" transform="matrix(-1 -1.224647e-16 1.224647e-16 -1 51.8989 70.5738)" class="st11" width="0.5" height="15.3"/>
	</g>
	<g>
		<path class="st5" d="M28.8,42.7c-0.3-0.7-1-1.3-1.7-1.3c-0.7,0-1.3,0.5-1.4,1.1c0,0-0.1,0.6,0,1.2c0,0,0,0.4,0.4,0.4
			c0,0,0.4,0,0.4-0.4c0,0,0-0.7,0.5-0.9c0,0,0.1,0,0.1,0c0.1,0,0.4,0.2,0.5,0.4c0.1,0.3,0.1,0.8,0,1.1L27.2,45
			c-0.2,0.3-0.1,0.8,0.3,0.9c0.1,0.1,0.2,0.1,0.3,0.1c0.2,0,0.4-0.1,0.6-0.4l0.4-0.8C29,44.3,29,43.3,28.8,42.7z"/>
	</g>
</g>
<g>
	<g>
		<rect x="8.8" y="27.6" class="st6" width="2.9" height="15"/>
		<rect x="11.1" y="27.6" class="st5" width="0.5" height="15.3"/>
	</g>
	<g>
		<path class="st6" d="M8.6,42.7c0.3-0.7,1-1.3,1.7-1.3c0.7,0,1.3,0.5,1.4,1.1c0,0,0.1,0.6,0,1.2c0,0,0,0.4-0.4,0.4
			c0,0-0.4,0-0.4-0.4c0,0,0-0.7-0.5-0.9c0,0-0.1,0-0.1,0c-0.1,0-0.4,0.2-0.5,0.4c-0.1,0.3-0.1,0.8,0,1.1l0.4,0.8
			c0.2,0.3,0.1,0.8-0.3,0.9C9.8,46,9.7,46,9.6,46c-0.2,0-0.4-0.1-0.6-0.4l-0.4-0.8C8.4,44.3,8.3,43.3,8.6,42.7z"/>
	</g>
</g>
<g>
	<rect x="33.4" y="33.1" class="st6" width="2.7" height="10.5"/>
	<rect x="35.3" y="33.1" class="st5" width="0.7" height="10.5"/>
	<g>
		<path class="st6" d="M33.1,43.7c0.3-0.7,1.1-1.3,1.8-1.3c0.8,0,1.4,0.5,1.5,1.1c0,0,0.1,0.6,0,1.2c0,0,0,0.4-0.4,0.4
			c0,0-0.4,0-0.4-0.4c0,0,0-0.7-0.6-0.9c0,0-0.1,0-0.1,0c-0.1,0-0.4,0.2-0.5,0.4c-0.1,0.3-0.1,0.8,0,1.1l0.4,0.8
			c0.2,0.3,0.1,0.8-0.3,0.9c-0.1,0.1-0.2,0.1-0.3,0.1c-0.2,0-0.5-0.1-0.6-0.4L33.2,46C32.9,45.4,32.9,44.4,33.1,43.7z"/>
	</g>
</g>
<g>
	
		<rect x="46.7" y="33.1" transform="matrix(-1 -1.224647e-16 1.224647e-16 -1 96.0386 76.6383)" class="st5" width="2.7" height="10.5"/>
	
		<rect x="46.7" y="33.1" transform="matrix(-1 -1.224647e-16 1.224647e-16 -1 94.1065 76.6383)" class="st11" width="0.7" height="10.5"/>
	<g>
		<path class="st5" d="M49.6,43.7c-0.3-0.7-1.1-1.3-1.8-1.3c-0.8,0-1.4,0.5-1.5,1.1c0,0-0.1,0.6,0,1.2c0,0,0,0.4,0.4,0.4
			c0,0,0.4,0,0.4-0.4c0,0,0-0.7,0.6-0.9c0,0,0.1,0,0.1,0c0.1,0,0.4,0.2,0.5,0.4c0.1,0.3,0.1,0.8,0,1.1l-0.4,0.8
			c-0.2,0.3-0.1,0.8,0.3,0.9c0.1,0.1,0.2,0.1,0.3,0.1c0.2,0,0.5-0.1,0.6-0.4l0.4-0.8C49.8,45.4,49.8,44.4,49.6,43.7z"/>
	</g>
</g>
<g>
	<path class="st12" d="M41.4,11.2l0-1.6c-4.5,0-5.4,4.7-4.2,9c0.6,2.1-1.1,3.6-1.1,3.6l0.4-0.2l0.2,1c0,0,4.3-1.3,4.3-1.4
		c0-0.1,0.8-9.6,0.8-9.6L41.4,11.2z"/>
	<path class="st13" d="M41.4,11.2l0-1.6c4.5,0,5.4,4.7,4.2,9c-0.6,2.1,1.1,3.6,1.1,3.6L46.3,22l-0.2,1c0,0-4.3-1.3-4.3-1.4
		c0-0.1-0.8-9.6-0.8-9.6L41.4,11.2z"/>
	<g>
		<polygon class="st5" points="44.7,22.2 41.4,26.7 41.4,26.7 41.4,26.7 41.4,26.7 41.4,22.3 41.4,17.8 43,18.1 43,20.2 44.2,20.9 
					"/>
	</g>
	<path class="st8" d="M43,18.1v0.7c-0.4,0.5-1,0.7-1.7,0.7h0v-1.7L43,18.1z"/>
	<g>
		<polygon class="st6" points="41.4,26.7 41.4,26.7 41.4,26.7 41.4,26.7 38,22.2 38.5,20.9 39.7,20.2 39.7,18.1 41.4,17.8 
			41.4,22.3 		"/>
	</g>
	<path class="st8" d="M41.4,17.8v1.7h0c-0.7,0-1.3-0.2-1.7-0.7v-0.7L41.4,17.8z"/>
	<g>
		<g>
			<g>
				<g>
					<path class="st6" d="M41.4,11.2l0,8c-1.6,0-2.4-1.4-2.8-3c0,0,0,0,0,0c0-0.1-0.1-0.3-0.1-0.4c-0.1-0.4-0.1-0.7-0.1-1.1
						c0-0.4,0-0.7,0.1-1.1c0-0.2,0.1-0.3,0.1-0.5c0-0.1,0.1-0.2,0.1-0.3C39.2,11.9,40.1,11.2,41.4,11.2z"/>
				</g>
			</g>
			<g>
				<g>
					<path class="st5" d="M44.3,14.7c0,0.3,0,0.7-0.1,1c0,0.1,0,0.3-0.1,0.4c0,0.2-0.1,0.3-0.1,0.5c0,0,0,0.1,0,0.1
						c-0.1,0.3-0.2,0.6-0.4,0.9c-0.5,0.9-1.2,1.6-2.3,1.6l0-8c0.5,0,0.9,0.1,1.3,0.3c0.6,0.3,1,0.8,1.3,1.4c0,0,0,0,0,0
						c0.1,0.1,0.1,0.2,0.2,0.4v0c0,0,0,0,0,0c0,0.1,0.1,0.2,0.1,0.3c0,0.1,0,0.2,0.1,0.3C44.3,14.2,44.3,14.5,44.3,14.7z"/>
				</g>
			</g>
		</g>
	</g>
	<path class="st13" d="M42.6,11.4c0,0,0.6,2.1,1.9,4.4l0.6-2.5l-1.5-2L42.6,11.4z"/>
	<g>
		<path class="st12" d="M40.3,10.9l-2.4,1.5l-0.9,3l1,3.2c-0.4-2.2,1.1-3.2,1.1-3.2c1-0.5,1.8-1.3,2.4-2.1v-2.6L40.3,10.9z"/>
		<path class="st13" d="M43.2,10.8h-1.9v2.6c0.8-1,1.4-1.9,1.4-1.9L43.2,10.8z"/>
	</g>
</g>
<circle class="st2" cx="34.5" cy="25.3" r="2.2"/>
<polygon class="st2" points="33.5,23.3 39,20.6 39,41.3 36,41.3 38.3,36.4 36,28.7 "/>
<polygon class="st2" points="32.3,25.3 32.3,32.3 36,32.3 36,26 "/>
<rect x="35.3" y="28.7" class="st3" width="0.7" height="3.6"/>
<polygon class="st4" points="41.4,28.2 38.4,20.9 39.1,20.6 41.4,26.3 "/>
<path class="st14" d="M36.2,55.3h-1.9v-8c0,0-0.3-4,1.8-6h5.3v14H36.2z"/>
<rect x="32.3" y="32.3" class="st4" width="3" height="0.8"/>
<rect x="35.3" y="32.3" class="st4" width="0.7" height="0.8"/>
<polygon class="st14" points="41.4,40.8 36.1,40.8 36,41.3 41.4,41.3 "/>
<g>
	<path class="st3" d="M46,25.3c0,1.2,1,2.2,2.2,2.2c1.2,0,2.2-1,2.2-2.2c0-1.2-1-2.2-2.2-2.2C47,23,46,24,46,25.3z"/>
	<polygon class="st3" points="49.2,23.3 43.7,20.6 43.7,41.3 46.7,41.3 43.9,36.4 46.7,28.7 	"/>
	<polygon class="st3" points="50.4,25.3 50.4,32.3 46.7,32.3 46.7,26 	"/>
	
		<rect x="46.7" y="28.7" transform="matrix(-1 -1.224647e-16 1.224647e-16 -1 94.1015 61.0321)" class="st4" width="0.7" height="3.6"/>
	<polygon class="st4" points="41.4,28.2 44.3,20.9 43.7,20.6 41.4,26.3 	"/>
	<path class="st15" d="M46.5,55.3h1.9v-8c0,0,0.3-4-1.8-6h-5.3v14H46.5z"/>
	
		<rect x="47.4" y="32.3" transform="matrix(-1 -1.224647e-16 1.224647e-16 -1 97.855 65.3506)" class="st4" width="3" height="0.8"/>
	
		<rect x="46.7" y="32.3" transform="matrix(-1 -1.224647e-16 1.224647e-16 -1 94.1015 65.3506)" class="st4" width="0.7" height="0.8"/>
	<polygon class="st15" points="41.4,40.8 46.6,40.8 46.7,41.3 41.4,41.3 	"/>
</g>
<path class="st2" d="M36,28.7c0,0,2.5,7.5,0.1,12.1h5.2V28.2l-2.8-7l-4.7,5.6L36,28.7z"/>
<path class="st3" d="M46.7,28.7c0,0-2.5,7.5-0.1,12.1h-5.2V28.2l2.8-7l4.7,5.6L46.7,28.7z"/>
<rect x="36.7" y="55.3" class="st6" width="3.7" height="19"/>
<rect x="42.3" y="55.3" class="st6" width="3.7" height="19"/>
<rect x="39.8" y="55.3" class="st5" width="0.6" height="19"/>
<rect x="45.4" y="55.3" class="st11" width="0.6" height="19"/>
<g>
	<polygon class="st6" points="36,73.6 36,72.9 36.5,72.5 37.2,72.3 39.1,72.3 39.9,72.4 40.6,73 40.6,73.8 38.1,74 	"/>
	<g>
		<path class="st16" d="M39.7,72.6h-2.7c-0.4,0-0.8,0.4-0.8,0.8h4.3C40.5,73,40.1,72.6,39.7,72.6z"/>
		<path class="st2" d="M36.9,72.6h2.7c0.4,0,0.8,0.4,0.8,0.8h0.4c0-0.6-0.5-1.1-1.1-1.1h-2.7c-0.6,0-1.1,0.5-1.1,1.1h0.4
			C36.1,73,36.5,72.6,36.9,72.6z"/>
		<polygon class="st2" points="40.5,73.4 36.1,73.4 35.8,73.4 35.8,74.4 36.4,74.4 40.2,74.4 40.8,74.4 40.8,73.4 		"/>
	</g>
</g>
<g>
	<polygon class="st6" points="41.8,73.6 41.8,72.9 42.3,72.5 43,72.3 45,72.3 45.8,72.4 46.5,73 46.5,73.8 43.9,74 	"/>
	<g>
		<path class="st16" d="M45.5,72.6h-2.7c-0.4,0-0.8,0.4-0.8,0.8h4.3C46.3,73,46,72.6,45.5,72.6z"/>
		<path class="st3" d="M42.8,72.6h2.7c0.4,0,0.8,0.4,0.8,0.8h0.4c0-0.6-0.5-1.1-1.1-1.1h-2.7c-0.6,0-1.1,0.5-1.1,1.1H42
			C42,73,42.3,72.6,42.8,72.6z"/>
		<polygon class="st3" points="46.3,73.4 42,73.4 41.6,73.4 41.6,74.4 42.2,74.4 46.1,74.4 46.7,74.4 46.7,73.4 		"/>
	</g>
</g>
<g id="SgPsEH_1_">
	
		<image style="overflow:visible;" width="914" height="634" id="SgPsEH_2_" xlink:href="7A97645CED1B70EE.png"  transform="matrix(0.5 0 0 0.5 77.2797 -112.4997)">
	</image>
</g>
</svg>
