<?xml version="1.0" encoding="utf-8"?>
<!-- Generator: Adobe Illustrator 22.0.0, SVG Export Plug-In . SVG Version: 6.00 Build 0)  -->
<svg version="1.1" id="图层_1" xmlns="http://www.w3.org/2000/svg" xmlns:xlink="http://www.w3.org/1999/xlink" x="0px" y="0px"
	 viewBox="0 0 60 60" style="enable-background:new 0 0 60 60;" xml:space="preserve">
<style type="text/css">
	.st0{fill:#EE8884;}
	.st1{fill:#CDE4EB;}
	.st2{fill:#D0A76B;}
	.st3{fill:#FFFFFF;}
	.st4{fill:#E7DDB2;}
	.st5{fill:#56BFCB;}
	.st6{fill:#1298A8;}
	.st7{fill:#196672;}
	.st8{fill:#EA5F5F;}
	.st9{fill:#414042;}
	.st10{fill:#6C6E71;}
	.st11{fill:#B03D23;}
</style>
<g id="XMLID_592_">
</g>
<g id="XMLID_595_">
</g>
<g id="XMLID_596_">
</g>
<g id="XMLID_597_">
</g>
<g id="XMLID_598_">
</g>
<g>
	<g>
		<rect x="15.4" y="12.2" class="st0" width="26.2" height="35.4"/>
		<rect x="15.8" y="13.4" class="st1" width="24.6" height="33.8"/>
		<rect x="16" y="13.2" class="st1" width="24.6" height="33.8"/>
		<rect x="16.3" y="12.9" class="st1" width="24.6" height="33.8"/>
		<rect x="16.6" y="12.6" class="st1" width="24.6" height="33.8"/>
		<g>
			<path class="st2" d="M18.2,13.7c0,0.2-0.2,0.4-0.4,0.4c-0.2,0-0.4-0.2-0.4-0.4c0-0.2,0.2-0.4,0.4-0.4
				C18,13.3,18.2,13.4,18.2,13.7z"/>
			<path class="st2" d="M20.4,13.7c0,0.2-0.2,0.4-0.4,0.4c-0.2,0-0.4-0.2-0.4-0.4c0-0.2,0.2-0.4,0.4-0.4
				C20.2,13.3,20.4,13.4,20.4,13.7z"/>
			<path class="st2" d="M22.6,13.7c0,0.2-0.2,0.4-0.4,0.4c-0.2,0-0.4-0.2-0.4-0.4c0-0.2,0.2-0.4,0.4-0.4
				C22.4,13.3,22.6,13.4,22.6,13.7z"/>
			<path class="st2" d="M24.8,13.7c0,0.2-0.2,0.4-0.4,0.4c-0.2,0-0.4-0.2-0.4-0.4c0-0.2,0.2-0.4,0.4-0.4
				C24.6,13.3,24.8,13.4,24.8,13.7z"/>
			<path class="st2" d="M27,13.7c0,0.2-0.2,0.4-0.4,0.4c-0.2,0-0.4-0.2-0.4-0.4c0-0.2,0.2-0.4,0.4-0.4C26.8,13.3,27,13.4,27,13.7z"
				/>
			<path class="st2" d="M29.2,13.7c0,0.2-0.2,0.4-0.4,0.4c-0.2,0-0.4-0.2-0.4-0.4c0-0.2,0.2-0.4,0.4-0.4
				C29,13.3,29.2,13.4,29.2,13.7z"/>
			<path class="st2" d="M31.4,13.7c0,0.2-0.2,0.4-0.4,0.4c-0.2,0-0.4-0.2-0.4-0.4c0-0.2,0.2-0.4,0.4-0.4
				C31.2,13.3,31.4,13.4,31.4,13.7z"/>
			<path class="st2" d="M33.6,13.7c0,0.2-0.2,0.4-0.4,0.4c-0.2,0-0.4-0.2-0.4-0.4c0-0.2,0.2-0.4,0.4-0.4
				C33.4,13.3,33.6,13.4,33.6,13.7z"/>
			<path class="st2" d="M35.8,13.7c0,0.2-0.2,0.4-0.4,0.4S35,13.9,35,13.7c0-0.2,0.2-0.4,0.4-0.4S35.8,13.4,35.8,13.7z"/>
			<path class="st2" d="M38,13.7c0,0.2-0.2,0.4-0.4,0.4c-0.2,0-0.4-0.2-0.4-0.4c0-0.2,0.2-0.4,0.4-0.4C37.9,13.3,38,13.4,38,13.7z"
				/>
			<path class="st2" d="M40.3,13.7c0,0.2-0.2,0.4-0.4,0.4c-0.2,0-0.4-0.2-0.4-0.4c0-0.2,0.2-0.4,0.4-0.4
				C40.1,13.3,40.3,13.4,40.3,13.7z"/>
		</g>
		<g>
			<path class="st0" d="M20.2,12c0,0.1,0,0.2-0.1,0.2c-0.1,0.1-0.2,0-0.3-0.1c0,0,0-0.1,0-0.1c-0.2-0.6-0.8-1-1.4-0.5
				c-0.3,0.2-0.4,0.5-0.5,0.8c0,0.1,0,0.2-0.1,0.3c0,0.1,0,0.2,0,0.3c0,0.1,0,0.2,0,0.3c0,0,0,0.1,0,0.1c0,0,0,0.1,0,0.1
				c0,0,0,0,0,0c0,0.2-0.3,0.3-0.4,0.1c0,0,0,0,0-0.1c0,0,0-0.1,0-0.1c0-0.1,0-0.1,0-0.2c0-0.1,0-0.2,0-0.3c0-0.1,0-0.2,0-0.3
				c0-0.1,0-0.2,0-0.3c0.1-0.6,0.4-1.1,0.9-1.3c0.7-0.3,1.3,0,1.6,0.5C20.1,11.6,20.2,11.8,20.2,12C20.2,12,20.2,12,20.2,12z"/>
		</g>
		<g>
			<path class="st0" d="M22.4,12c0,0.1,0,0.1-0.1,0.1c-0.1,0.1-0.3,0.1-0.3-0.1c0,0,0-0.1,0-0.1c-0.2-0.6-0.8-1-1.4-0.6
				c-0.2,0.1-0.3,0.3-0.4,0.6c0,0,0,0,0,0c0,0.1-0.1,0.1-0.1,0.2c0,0,0,0.1,0,0.1c0,0.1,0,0.2-0.1,0.3c0,0.1,0,0.2,0,0.3
				c0,0.1,0,0.2,0,0.3c0,0,0,0.1,0,0.1c0,0,0,0.1,0,0.1c0,0,0,0,0,0c0,0.2-0.3,0.3-0.4,0.1c0,0,0,0,0-0.1c0,0,0-0.1,0-0.1
				c0-0.1,0-0.1,0-0.2c0-0.1,0-0.2,0-0.3c0-0.1,0-0.2,0-0.3c0-0.1,0-0.2,0-0.3c0-0.1,0.1-0.2,0.1-0.3c0.1-0.2,0.1-0.3,0.2-0.4
				c0.1-0.2,0.4-0.4,0.6-0.5c0.7-0.3,1.3,0,1.6,0.5C22.3,11.6,22.4,11.8,22.4,12C22.4,12,22.4,12,22.4,12z"/>
		</g>
		<g>
			<path class="st0" d="M24.7,12c0,0.1,0,0.1-0.1,0.1c-0.1,0.1-0.3,0.1-0.3-0.1c0,0,0-0.1,0-0.1c-0.2-0.6-0.8-1-1.4-0.6
				c-0.2,0.2-0.4,0.4-0.5,0.6c0,0,0,0.1-0.1,0.1c0,0,0,0.1,0,0.1c0,0.1,0,0.2-0.1,0.3c0,0.1,0,0.2,0,0.3c0,0.1,0,0.2,0,0.3
				c0,0,0,0.1,0,0.1c0,0,0,0.1,0,0.1c0,0,0,0,0,0c0,0.2-0.3,0.3-0.4,0.1c0,0,0,0,0-0.1c0,0,0-0.1,0-0.1c0-0.1,0-0.1,0-0.2
				c0-0.1,0-0.2,0-0.3c0-0.1,0-0.2,0-0.3c0-0.1,0-0.2,0-0.3c0-0.1,0-0.2,0.1-0.3c0.1-0.2,0.1-0.3,0.2-0.4c0.1-0.2,0.4-0.4,0.6-0.5
				c0.7-0.3,1.3,0,1.6,0.5C24.6,11.6,24.6,11.8,24.7,12C24.7,12,24.7,12,24.7,12z"/>
		</g>
		<g>
			<path class="st0" d="M26.9,12c0,0.1,0,0.1-0.1,0.1c-0.1,0.1-0.3,0.1-0.3-0.1c0,0,0-0.1,0-0.1c-0.2-0.6-0.8-1-1.4-0.6
				c-0.2,0.2-0.3,0.4-0.4,0.6c0,0,0,0.1-0.1,0.1c0,0,0,0.1,0,0.1c0,0.1,0,0.2-0.1,0.3c0,0.1,0,0.2,0,0.3c0,0.1,0,0.2,0,0.3
				c0,0,0,0.1,0,0.1c0,0,0,0.1,0,0.1c0,0,0,0,0,0c0,0.2-0.3,0.3-0.4,0.1c0,0,0,0,0-0.1c0,0,0-0.1,0-0.1c0,0,0-0.1,0-0.1
				c0-0.1,0-0.2,0-0.3c0-0.1,0-0.2,0-0.3c0-0.1,0-0.2,0-0.3c0-0.1,0-0.2,0.1-0.3c0.1-0.2,0.1-0.3,0.2-0.4c0.1-0.2,0.4-0.4,0.6-0.5
				c0.7-0.3,1.3,0,1.6,0.5C26.8,11.6,26.8,11.8,26.9,12C26.9,12,26.9,12,26.9,12z"/>
		</g>
		<g>
			<path class="st0" d="M29.1,12c0,0.1,0,0.1,0,0.1c-0.1,0.1-0.3,0.1-0.3-0.1c0,0,0-0.1,0-0.1c-0.2-0.6-0.8-1-1.4-0.6
				c-0.2,0.2-0.4,0.4-0.4,0.6c0,0,0,0.1-0.1,0.1c0,0,0,0.1,0,0.1c0,0.1,0,0.2-0.1,0.3c0,0.1,0,0.2,0,0.3c0,0.1,0,0.2,0,0.3
				c0,0,0,0.1,0,0.1c0,0,0,0.1,0,0.1c0,0,0,0,0,0c0,0.2-0.3,0.3-0.4,0.1c0,0,0,0,0-0.1c0,0,0-0.1,0-0.1c0,0,0-0.1,0-0.1
				c0-0.1,0-0.2,0-0.3c0-0.1,0-0.2,0-0.3c0-0.1,0-0.2,0-0.3c0-0.1,0-0.2,0.1-0.3c0.1-0.2,0.1-0.3,0.2-0.4c0.1-0.2,0.4-0.4,0.6-0.5
				c0.7-0.3,1.3,0,1.6,0.5C29,11.6,29.1,11.8,29.1,12C29.1,12,29.1,12,29.1,12z"/>
		</g>
		<g>
			<path class="st0" d="M31.3,12c0,0.1,0,0.1-0.1,0.1c-0.1,0.1-0.3,0.1-0.3-0.1c0,0,0-0.1,0-0.1c-0.2-0.6-0.8-1-1.4-0.6
				c-0.2,0.2-0.4,0.4-0.4,0.6c0,0,0,0.1,0,0.1c0,0,0,0.1,0,0.1c0,0.1,0,0.2-0.1,0.3c0,0.1,0,0.2,0,0.3c0,0.1,0,0.2,0,0.3
				c0,0.1,0,0.1,0,0.2c0,0,0,0.1,0,0.1c0,0,0,0,0,0c0,0.2-0.3,0.3-0.4,0.1c0,0,0,0,0-0.1c0,0,0-0.1,0-0.1c0,0,0-0.1,0-0.1
				c0-0.1,0-0.2,0-0.3c0-0.1,0-0.2,0-0.3c0-0.1,0-0.2,0-0.3c0-0.1,0-0.2,0.1-0.3c0.1-0.2,0.1-0.3,0.2-0.4c0.1-0.2,0.4-0.4,0.6-0.5
				c0.7-0.3,1.3,0,1.6,0.5C31.2,11.6,31.3,11.8,31.3,12C31.3,12,31.3,12,31.3,12z"/>
		</g>
		<g>
			<path class="st0" d="M33.6,12c0,0.1,0,0.1,0,0.1c-0.1,0.1-0.3,0.1-0.3-0.1c0,0,0-0.1,0-0.1c-0.2-0.6-0.8-1-1.4-0.6
				c-0.2,0.2-0.4,0.4-0.4,0.6c0,0,0,0.1-0.1,0.1c0,0,0,0.1,0,0.1c0,0.1,0,0.2-0.1,0.3c0,0.1,0,0.2,0,0.3c0,0.1,0,0.2,0,0.3
				c0,0.1,0,0.1,0,0.2c0,0,0,0,0,0.1c0,0,0,0,0,0c0,0.2-0.3,0.3-0.4,0.1c0,0,0,0,0-0.1c0,0,0-0.1,0-0.2c0,0,0-0.1,0-0.1
				c0-0.1,0-0.2,0-0.3c0-0.1,0-0.2,0-0.3c0-0.1,0-0.2,0-0.3c0-0.1,0-0.2,0.1-0.3c0.1-0.2,0.1-0.3,0.2-0.5c0.2-0.2,0.4-0.4,0.6-0.5
				c0.7-0.3,1.3,0,1.6,0.5C33.5,11.6,33.5,11.8,33.6,12C33.6,12,33.6,12,33.6,12z"/>
		</g>
		<g>
			<path class="st0" d="M35.8,12c0,0.1,0,0.1-0.1,0.1c-0.1,0.1-0.3,0.1-0.3-0.1c0,0,0-0.1,0-0.1c-0.2-0.6-0.8-1-1.4-0.6
				c-0.2,0.2-0.3,0.4-0.4,0.6c0,0,0,0.1,0,0.1c0,0,0,0.1,0,0.1c0,0.1,0,0.2-0.1,0.3c0,0.1,0,0.2,0,0.3c0,0.1,0,0.2,0,0.3
				c0,0.1,0,0.1,0,0.2c0,0,0,0,0,0.1c0,0,0,0,0,0c0,0.2-0.3,0.3-0.4,0.1c0,0,0,0,0-0.1c0-0.1,0-0.1,0-0.2c0,0,0-0.1,0-0.1
				c0-0.1,0-0.2,0-0.3c0-0.1,0-0.2,0-0.3c0-0.1,0-0.2,0-0.3c0-0.1,0-0.2,0.1-0.3c0.1-0.2,0.1-0.3,0.2-0.4c0.1-0.2,0.4-0.4,0.6-0.5
				c0.7-0.3,1.3,0,1.6,0.5C35.7,11.6,35.8,11.8,35.8,12C35.8,12,35.8,12,35.8,12z"/>
		</g>
		<g>
			<path class="st0" d="M38,12c0,0.1,0,0.1-0.1,0.1c-0.1,0.1-0.3,0.1-0.3-0.1c0,0,0-0.1,0-0.1c-0.2-0.6-0.8-1-1.4-0.6
				c-0.2,0.2-0.4,0.4-0.4,0.6c0,0,0,0.1-0.1,0.1c0,0,0,0.1,0,0.1c0,0.1,0,0.2-0.1,0.3c0,0.1,0,0.2,0,0.3c0,0.1,0,0.2,0,0.3
				c0,0.1,0,0.1,0,0.2c0,0,0,0,0,0c0,0,0,0,0,0c0,0.2-0.3,0.3-0.4,0.1c0,0,0,0,0-0.1c0-0.1,0-0.1,0-0.2c0,0,0-0.1,0-0.1
				c0-0.1,0-0.2,0-0.3c0-0.1,0-0.2,0-0.3c0-0.1,0-0.2,0-0.3c0-0.1,0-0.2,0.1-0.3c0.1-0.2,0.1-0.3,0.2-0.5c0.2-0.2,0.4-0.4,0.6-0.5
				c0.7-0.3,1.3,0,1.6,0.5C37.9,11.6,38,11.8,38,12C38,12,38,12,38,12z"/>
		</g>
		<g>
			<path class="st0" d="M40.1,12.2c-0.1,0-0.2,0-0.3-0.1c0-0.1,0-0.1-0.1-0.2c-0.2-0.6-0.8-0.9-1.4-0.5c-0.2,0.2-0.4,0.4-0.5,0.6
				c0,0,0,0.1-0.1,0.1c0,0,0,0.1,0,0.1c0,0.1,0,0.2-0.1,0.3c0,0.1,0,0.2,0,0.3c0,0.1,0,0.2,0,0.3c0,0.1,0,0.2,0.1,0.2v0c0,0,0,0,0,0
				c0,0.2-0.3,0.3-0.4,0.1c0,0,0,0,0-0.1c0-0.1,0-0.1,0-0.2c0,0,0-0.1,0-0.1c0-0.1,0-0.2,0-0.3c0-0.1,0-0.2,0-0.3c0-0.1,0-0.2,0-0.3
				c0-0.1,0-0.2,0.1-0.3c0.1-0.2,0.1-0.3,0.2-0.4c0.1-0.2,0.4-0.4,0.6-0.5c0.7-0.3,1.2,0,1.6,0.5c0.1,0.1,0.1,0.3,0.2,0.4
				c0,0,0,0.1,0,0.1C40.3,12.1,40.2,12.1,40.1,12.2z"/>
		</g>
		<g>
			<path class="st0" d="M40.9,12.1c0-0.1,0.1-0.4,0.1-0.6c0-0.2-0.1-0.3-0.2-0.2c0,0,0,0,0,0c-0.2,0.1-0.4,0.3-0.5,0.6
				c0,0,0,0.1,0,0.1c0,0.1,0,0.1,0,0.2c0,0,0,0,0,0.1c0,0.1,0,0.2,0,0.3c0,0.1,0,0.2,0,0.3c0,0.1,0,0.2,0,0.3c0,0.1,0,0.2,0.1,0.2
				c0,0,0,0,0,0c0,0.2-0.3,0.3-0.4,0.1c0,0,0,0,0-0.1c0-0.1,0-0.1,0-0.2c0,0,0-0.1,0-0.1c0-0.1,0-0.2,0-0.3c0-0.1,0-0.2,0-0.3
				c0-0.1,0-0.2,0-0.3c0-0.1,0-0.3,0.1-0.4c0.1-0.2,0.1-0.3,0.2-0.4c0.1-0.2,0.2-0.3,0.4-0.4h0c0.7-0.4,0.9,0.3,0.9,0.9
				c0,0.1,0,0.1,0,0.2H40.9z"/>
		</g>
		<g>
			<rect x="18.1" y="17" class="st3" width="22.1" height="0.6"/>
			<rect x="18.1" y="19.2" class="st3" width="22.1" height="0.6"/>
			<rect x="18.1" y="21.4" class="st3" width="22.1" height="0.6"/>
			<rect x="18.1" y="23.6" class="st3" width="22.1" height="0.6"/>
			<rect x="18.1" y="25.7" class="st3" width="12.8" height="0.6"/>
		</g>
		<path class="st1" d="M37.6,43.1l3.9-17v7l-2.4,10.3l-1.2,2c0,0.1-0.1,0.2-0.1,0.2c0,0,0-0.1,0-0.2v0L37.6,43.1z"/>
		<polygon class="st1" points="44.9,19.2 44.2,22.1 44.2,22.1 44.9,19.4 44.9,19.2 		"/>
		<polygon class="st1" points="45.6,19.1 45.6,19.2 45.6,19.2 45.6,19.2 45.6,19.2 44.9,19.2 44.9,19 45,19 		"/>
		<polygon class="st4" points="45.1,19.2 45.1,19.2 45,19.3 		"/>
		<polygon class="st4" points="45.7,19.3 45.7,19.4 45.7,19.3 45.7,19.3 		"/>
		<g>
			<polygon class="st5" points="42.6,19.9 41.9,19.8 36.7,42.3 37.5,42.4 			"/>
			<polygon class="st6" points="37.5,42.4 38.2,42.6 43.4,20.1 42.6,19.9 			"/>
			<path class="st7" d="M43.3,20.8l-1.5-0.4l0,0.1l0,0l0,0c0,0.1,0.3,0.2,0.7,0.3c0.4,0.1,0.8,0.1,0.8,0.1l0,0l0,0L43.3,20.8z"/>
			<g>
				<polygon class="st5" points="42.4,16.2 42.4,16.2 42.4,16.2 				"/>
				<polygon class="st5" points="44,16.6 44,16.6 44,16.6 				"/>
				<path class="st5" d="M43,16.5c-0.2,0-0.3,0.1-0.4,0.2l0,0l-0.2,0.9l0.8,0.2l0.3-1.2L43,16.5z"/>
				<path class="st6" d="M43.1,17.8l0.8,0.2l0.2-0.9l0,0v0l0,0l0,0c0-0.2-0.1-0.3-0.3-0.4l-0.4-0.1L43.1,17.8z"/>
			</g>
			<path class="st7" d="M43.2,17.4c-0.4-0.1-0.8-0.2-0.7-0.3l-0.1,0.3l1.5,0.4l0.1-0.3C44,17.6,43.7,17.5,43.2,17.4z"/>
			<g>
				<path class="st8" d="M42.5,17.2l-0.8,3.3l0,0l0,0c0,0.1,0.3,0.2,0.7,0.3l0.8-3.3C42.8,17.4,42.5,17.2,42.5,17.2z"/>
				<path class="st0" d="M43.2,17.5l-0.8,3.3c0.4,0.1,0.8,0.1,0.8,0.1h0h0l0.8-3.3C44,17.6,43.6,17.6,43.2,17.5z"/>
			</g>
			<path class="st9" d="M37.1,44.1c0,0,0,0.2,0,0.4c0,0.2-0.1,0.4-0.2,0.3c0,0,0-0.2,0-0.4C37,44.2,37.1,44.1,37.1,44.1z"/>
			<polygon class="st0" points="37,44.6 37,44.6 38.2,42.6 37.5,42.4 			"/>
			<polygon class="st8" points="36.7,42.3 36.9,44.6 37,44.6 37.5,42.4 			"/>
			
				<rect x="37.5" y="41.6" transform="matrix(0.2251 -0.9743 0.9743 0.2251 -12.3095 69.3979)" class="st10" width="0" height="1.6"/>
			<g>
				<path class="st0" d="M43.3,20.7l0.2,0c0-0.2,0.1-0.3,0.2-0.5c0.2-0.4,0.4-0.7,0.6-0.9l0.4-1.7L44,17.6L43.3,20.7z"/>
				<polygon class="st11" points="44,17.6 44,17.6 43.3,20.7 43.3,20.7 				"/>
			</g>
			<path class="st0" d="M44.6,17.8L44.6,17.8C44.6,17.8,44.6,17.8,44.6,17.8L44.6,17.8l-1.5,6.7l0,0l0,0c0,0,0,0.1,0.1,0.1
				c0.1,0,0.1,0,0.1-0.1l0,0l0,0l1.5-6.7l0,0c0,0,0,0,0,0l0,0c0,0,0-0.1-0.1-0.1C44.7,17.7,44.7,17.7,44.6,17.8z"/>
		</g>
		<polygon class="st1" points="16.6,41.3 21.8,46.4 21.8,41.3 		"/>
	</g>
</g>
</svg>
