<?xml version="1.0" encoding="utf-8"?>
<!-- Generator: Adobe Illustrator 22.0.0, SVG Export Plug-In . SVG Version: 6.00 Build 0)  -->
<svg version="1.1" id="图层_1" xmlns="http://www.w3.org/2000/svg" xmlns:xlink="http://www.w3.org/1999/xlink" x="0px" y="0px"
	 viewBox="0 0 60 60" style="enable-background:new 0 0 60 60;" xml:space="preserve">
<style type="text/css">
	.st0{fill:#4ECDDA;}
	.st1{fill:#00A1B3;}
	.st2{opacity:0.4;fill:#1F2937;}
</style>
<g id="XMLID_592_">
</g>
<g id="XMLID_595_">
</g>
<g id="XMLID_596_">
</g>
<g id="XMLID_597_">
</g>
<g id="XMLID_598_">
</g>
<g>
	<g>
		<g>
			<g>
				<g>
					<g>
						<g>
							<path class="st0" d="M41.3,16.3c0.6-0.7,1.8-0.8,2.5-0.2l6.9,6.1c0.7,0.6,0.8,1.8,0.2,2.5L33.7,44.2
								c-0.6,0.7-1.8,0.8-2.5,0.2l-6.9-6.1c-0.7-0.6-0.8-1.8-0.2-2.5L41.3,16.3z"/>
							<path class="st1" d="M33,44.2c-0.5,0.5-1.3,0.6-1.8,0.1l-6.9-6.1c-0.5-0.5-0.6-1.3-0.1-1.8L41.3,17c0.5-0.5,1.3-0.6,1.8-0.1
								l6.9,6.1c0.5,0.5,0.6,1.3,0.1,1.8L33,44.2L33,44.2z M33.7,44.9l17.2-19.4c0.8-0.9,0.7-2.4-0.2-3.2l-6.9-6.1
								c-0.9-0.8-2.4-0.7-3.2,0.2L23.4,35.8c-0.8,0.9-0.7,2.4,0.2,3.2l6.9,6.1C31.5,45.9,32.9,45.8,33.7,44.9L33.7,44.9z"/>
							<path class="st1" d="M48.9,26.2c-1-0.1-1.7-1.2-1.6-2.4c0.1-1.3,1-2.3,1.9-2.2c1,0.1,1.7,1.2,1.6,2.4
								C50.8,25.3,49.9,26.3,48.9,26.2z"/>
							<path class="st1" d="M44.6,17.9c0.1,1-0.9,1.8-2.2,1.9c-1.3,0.1-2.4-0.7-2.4-1.6c-0.1-1,0.9-1.8,2.2-1.9
								C43.5,16.2,44.6,16.9,44.6,17.9z"/>
							<path class="st1" d="M34.4,42.6c-0.2-1-1.4-1.5-2.6-1.3c-1.3,0.2-2.1,1.2-1.9,2.2c0.2,1,1.4,1.5,2.6,1.3
								C33.8,44.6,34.6,43.6,34.4,42.6z"/>
							<path class="st1" d="M25.7,39.4c1-0.1,1.7-1.1,1.6-2.4c-0.1-1.3-0.9-2.3-1.9-2.2c-1,0.1-1.7,1.1-1.6,2.4
								C23.8,38.4,24.7,39.4,25.7,39.4z"/>
							<path class="st1" d="M40.3,33.8c1.6-1.9,1.5-4.7-0.4-6.4c-1.9-1.6-4.7-1.5-6.4,0.4c-1.6,1.9-1.5,4.7,0.4,6.4
								C35.8,35.9,38.7,35.7,40.3,33.8z M35,29.4l-0.3-0.3c-0.2-0.2-0.3-0.4-0.2-0.5c0.1-0.1,0.3-0.1,0.5,0.1c0.2,0.2,0.5,0.2,0.7,0
								c0,0,0.4-0.4,0.8-0.4l0.1,0.1c0.1,0.2,0,0.5-0.2,0.6c0,0-0.4,0.1-0.7,0.5c-0.4,0.5-0.4,1-0.1,1.3c0.4,0.3,0.8,0.3,1.4,0
								c0.8-0.4,1.5-0.6,2-0.1c0.5,0.5,0.6,1.2,0.2,1.9l0.3,0.3c0.2,0.2,0.3,0.4,0.2,0.5c-0.1,0.1-0.3,0.1-0.5-0.1
								c-0.2-0.1-0.5-0.1-0.7,0c0,0-0.3,0.3-0.6,0.3l-0.1-0.1c-0.1-0.2,0-0.5,0.2-0.5c0,0,0.2-0.1,0.5-0.5c0.4-0.5,0.3-0.9,0-1.2
								c-0.3-0.3-0.7-0.2-1.4,0.1c-0.8,0.4-1.5,0.5-2,0C34.7,30.9,34.5,30.2,35,29.4z"/>
						</g>
					</g>
					<g>
						<path class="st2" d="M36.2,43.6l7.3-24.9c0.3-1.2-0.3-2.5-1.5-2.8l-8.9-2.6c-1.2-0.3-2.4,0.3-2.8,1.5L23,39.7
							c-0.3,1.2,0.3,2.5,1.5,2.8l8.9,2.6C34.6,45.4,35.9,44.8,36.2,43.6z"/>
						<g>
							<path class="st0" d="M30.6,14.2c0.3-0.9,1.3-1.5,2.2-1.2l8.9,2.6c0.9,0.3,1.5,1.3,1.2,2.2l-7.3,24.9
								c-0.3,0.9-1.3,1.5-2.2,1.2l-8.9-2.6C23.5,41,23,40,23.3,39.1L30.6,14.2z"/>
							<path class="st1" d="M34.9,43c-0.2,0.7-0.9,1.1-1.6,0.9l-8.9-2.6c-0.7-0.2-1.1-0.9-0.9-1.6l7.3-24.9c0.2-0.7,0.9-1.1,1.6-0.9
								l8.9,2.6c0.7,0.2,1.1,0.9,0.9,1.6L34.9,43L34.9,43z M35.9,43.3l7.3-24.9c0.3-1.2-0.3-2.4-1.5-2.8L32.8,13
								c-1.2-0.3-2.4,0.3-2.8,1.5l-7.3,24.9c-0.3,1.2,0.3,2.4,1.5,2.8l8.9,2.6C34.3,45.1,35.5,44.5,35.9,43.3L35.9,43.3z"/>
							<path class="st1" d="M41.7,19.9c-0.9,0.4-2-0.3-2.5-1.5c-0.5-1.2-0.1-2.5,0.8-2.8c0.9-0.4,2,0.3,2.5,1.5
								C43,18.3,42.6,19.6,41.7,19.9z"/>
							<path class="st1" d="M34.3,14.2c0.5,0.9,0,2.1-1.2,2.7c-1.1,0.6-2.4,0.4-2.9-0.5c-0.5-0.9,0.1-2.1,1.2-2.7
								C32.5,13.1,33.8,13.4,34.3,14.2z"/>
							<path class="st1" d="M35.6,40.9c-0.6-0.8-1.9-0.8-2.9-0.1c-1,0.8-1.4,2-0.8,2.8c0.6,0.8,1.9,0.8,2.9,0.1
								C35.8,43,36.2,41.7,35.6,40.9z"/>
							<path class="st1" d="M26.2,41.7c0.9-0.5,1.1-1.8,0.5-2.9c-0.6-1.1-1.8-1.7-2.7-1.2c-0.9,0.5-1.1,1.8-0.5,2.9
								C24.2,41.6,25.4,42.2,26.2,41.7z"/>
							<path class="st1" d="M37.2,30.5c0.7-2.4-0.7-4.9-3.1-5.6c-2.4-0.7-4.9,0.7-5.6,3.1c-0.7,2.4,0.7,4.9,3.1,5.6
								C34,34.2,36.5,32.9,37.2,30.5z M30.5,28.7l-0.4-0.1c-0.2-0.1-0.4-0.2-0.4-0.4c0-0.1,0.3-0.2,0.5-0.1c0.2,0.1,0.5-0.1,0.6-0.3
								c0,0,0.2-0.5,0.5-0.7l0.1,0.1c0.2,0.1,0.2,0.4,0.1,0.6c0,0-0.3,0.3-0.4,0.7c-0.2,0.6,0,1.1,0.5,1.2c0.5,0.1,0.8-0.1,1.2-0.6
								c0.6-0.7,1.1-1.1,1.8-0.9c0.7,0.2,1,0.8,1,1.6l0.4,0.1c0.2,0.1,0.4,0.2,0.4,0.4c0,0.1-0.3,0.2-0.5,0.1
								c-0.2-0.1-0.5,0.1-0.6,0.3c0,0-0.2,0.4-0.4,0.6l-0.1-0.1c-0.2-0.1-0.2-0.4,0-0.6c0,0,0.1-0.1,0.3-0.6c0.2-0.6-0.1-1-0.4-1.1
								c-0.4-0.1-0.7,0.1-1.2,0.7c-0.6,0.7-1.1,1-1.8,0.8C30.8,30.2,30.4,29.6,30.5,28.7z"/>
						</g>
					</g>
					<g>
						<path class="st2" d="M37.6,40.4l-6.4-25.1c-0.3-1.2-1.5-1.9-2.7-1.6L19.5,16c-1.2,0.3-1.9,1.5-1.6,2.7l6.4,25.1
							c0.3,1.2,1.5,1.9,2.7,1.6l8.9-2.3C37.2,42.9,38,41.6,37.6,40.4z"/>
						<g>
							<path class="st0" d="M17.8,18.1c-0.2-0.9,0.3-1.9,1.3-2.2l8.9-2.3c0.9-0.2,1.9,0.3,2.2,1.3L36.6,40c0.2,0.9-0.3,1.9-1.3,2.2
								l-8.9,2.3c-0.9,0.2-1.9-0.3-2.2-1.3L17.8,18.1z"/>
							<path class="st1" d="M36.3,40.6c0.2,0.7-0.2,1.4-0.9,1.6l-8.9,2.3c-0.7,0.2-1.4-0.2-1.6-0.9l-6.4-25.1
								c-0.2-0.7,0.2-1.4,0.9-1.6l8.9-2.3c0.7-0.2,1.4,0.2,1.6,0.9L36.3,40.6L36.3,40.6z M37.2,40.4l-6.4-25.1
								c-0.3-1.2-1.5-1.9-2.7-1.6l-8.9,2.3c-1.2,0.3-1.9,1.5-1.6,2.7l6.4,25.1c0.3,1.2,1.5,1.9,2.7,1.6l8.9-2.3
								C36.8,42.8,37.5,41.6,37.2,40.4L37.2,40.4z"/>
							<path class="st1" d="M30.3,17.3c-0.6,0.8-1.9,0.8-2.9,0c-1-0.8-1.3-2.1-0.7-2.8c0.6-0.8,1.9-0.8,2.9,0
								C30.6,15.3,30.9,16.5,30.3,17.3z"/>
							<path class="st1" d="M21,16.2c0.9,0.5,1,1.8,0.4,2.9c-0.7,1.1-1.9,1.6-2.7,1.1c-0.9-0.5-1-1.8-0.4-2.9
								C18.9,16.2,20.1,15.7,21,16.2z"/>
							<path class="st1" d="M35.7,38.5c-0.9-0.4-2,0.3-2.5,1.4c-0.5,1.2-0.2,2.4,0.7,2.8c0.9,0.4,2-0.3,2.5-1.4
								C37,40.1,36.7,38.9,35.7,38.5z"/>
							<path class="st1" d="M28.1,43.9c0.5-0.8,0-2.1-1.1-2.7c-1.1-0.7-2.4-0.5-2.9,0.4c-0.5,0.8,0,2.1,1.1,2.7
								C26.3,44.9,27.6,44.8,28.1,43.9z"/>
							<path class="st1" d="M31.8,28.7c-0.6-2.4-3.1-3.9-5.5-3.2c-2.4,0.6-3.9,3.1-3.2,5.5c0.6,2.4,3.1,3.9,5.5,3.2
								C30.9,33.6,32.4,31.1,31.8,28.7z M25.1,30.6l-0.4,0.1c-0.2,0.1-0.5,0-0.5-0.1c0-0.1,0.1-0.3,0.3-0.4c0.2-0.1,0.4-0.3,0.4-0.6
								c0,0-0.1-0.6,0.1-0.9l0.2,0c0.2,0,0.4,0.2,0.4,0.5c0,0-0.1,0.4,0,0.8c0.2,0.6,0.6,0.9,1,0.8c0.5-0.1,0.7-0.5,0.7-1.2
								c0.1-0.9,0.4-1.5,1.1-1.7c0.7-0.2,1.3,0.2,1.6,0.9l0.4-0.1c0.2-0.1,0.5,0,0.5,0.1c0,0.1-0.1,0.3-0.3,0.4
								c-0.2,0.1-0.4,0.3-0.4,0.5c0,0,0,0.4-0.1,0.7l-0.1,0c-0.2,0-0.4-0.2-0.3-0.5c0,0,0-0.2-0.1-0.7c-0.2-0.6-0.6-0.8-0.9-0.7
								c-0.4,0.1-0.6,0.5-0.7,1.3c-0.1,0.9-0.4,1.5-1.2,1.7C26.2,31.7,25.5,31.4,25.1,30.6z"/>
						</g>
					</g>
					<g>
						<path class="st2" d="M37.3,37.2L20.4,17.6c-0.8-0.9-2.2-1-3.2-0.2l-7,6c-0.9,0.8-1,2.2-0.2,3.2l16.9,19.6
							c0.8,0.9,2.2,1,3.2,0.2l7-6C38,39.6,38.1,38.2,37.3,37.2z"/>
						<g>
							<path class="st0" d="M9.6,26C9,25.3,9,24.1,9.8,23.5l7-6c0.7-0.6,1.9-0.6,2.5,0.2l16.9,19.6c0.6,0.7,0.6,1.9-0.2,2.5l-7,6
								c-0.7,0.6-1.9,0.6-2.5-0.2L9.6,26z"/>
							<path class="st1" d="M36.2,38c0.5,0.5,0.4,1.4-0.1,1.8l-7,6c-0.5,0.5-1.4,0.4-1.8-0.1L10.3,26.1c-0.5-0.5-0.4-1.4,0.1-1.8
								l7-6c0.5-0.5,1.4-0.4,1.8,0.1L36.2,38L36.2,38z M36.9,37.4L20,17.7c-0.8-0.9-2.2-1-3.2-0.2l-7,6c-0.9,0.8-1,2.2-0.2,3.2
								l16.9,19.6c0.8,0.9,2.2,1,3.2,0.2l7-6C37.6,39.7,37.7,38.3,36.9,37.4L36.9,37.4z"/>
							<path class="st1" d="M20.5,19.8c-0.2,1-1.4,1.5-2.6,1.3c-1.3-0.3-2.1-1.3-1.9-2.2c0.2-1,1.4-1.5,2.6-1.3
								C19.8,17.8,20.7,18.8,20.5,19.8z"/>
							<path class="st1" d="M11.6,22.9c1,0.1,1.7,1.2,1.6,2.4c-0.1,1.3-1,2.3-1.9,2.2c-1-0.1-1.7-1.2-1.6-2.4
								C9.8,23.8,10.6,22.8,11.6,22.9z"/>
							<path class="st1" d="M34.8,36.3c-1,0.1-1.7,1.1-1.6,2.4C33.2,40,34,41,35,41c1-0.1,1.7-1.1,1.6-2.4
								C36.6,37.3,35.7,36.3,34.8,36.3z"/>
							<path class="st1" d="M30.3,44.6c0.1-1-0.9-1.9-2.2-2c-1.3-0.1-2.4,0.6-2.4,1.6c-0.1,1,0.9,1.9,2.2,2
								C29.2,46.3,30.3,45.6,30.3,44.6z"/>
							<path class="st1" d="M26.8,29.3c-1.6-1.9-4.5-2.1-6.4-0.5c-1.9,1.6-2.1,4.5-0.5,6.4c1.6,1.9,4.5,2.1,6.4,0.5
								C28.3,34,28.5,31.2,26.8,29.3z M21.8,34l-0.3,0.3c-0.2,0.2-0.4,0.2-0.5,0.1c-0.1-0.1,0-0.3,0.2-0.5c0.2-0.2,0.2-0.5,0.1-0.7
								c0,0-0.3-0.5-0.3-0.8l0.1-0.1c0.2-0.1,0.5,0,0.5,0.3c0,0,0.1,0.4,0.4,0.7c0.4,0.5,0.9,0.5,1.3,0.2c0.4-0.3,0.4-0.7,0.1-1.4
								c-0.3-0.9-0.4-1.5,0.2-2c0.5-0.5,1.3-0.4,1.9,0.1l0.3-0.3c0.2-0.2,0.4-0.2,0.5-0.1c0.1,0.1,0,0.3-0.1,0.5
								c-0.2,0.1-0.2,0.4-0.1,0.7c0,0,0.2,0.4,0.3,0.6l-0.1,0.1c-0.2,0.1-0.5,0-0.5-0.3c0,0,0-0.2-0.4-0.6c-0.4-0.5-0.9-0.4-1.1-0.2
								c-0.3,0.3-0.3,0.7-0.1,1.4c0.3,0.9,0.3,1.5-0.3,2C23.2,34.5,22.4,34.6,21.8,34z"/>
						</g>
					</g>
				</g>
			</g>
		</g>
	</g>
</g>
</svg>
