<?xml version="1.0" encoding="utf-8"?>
<!-- Generator: Adobe Illustrator 22.0.0, SVG Export Plug-In . SVG Version: 6.00 Build 0)  -->
<svg version="1.1" id="图层_1" xmlns="http://www.w3.org/2000/svg" xmlns:xlink="http://www.w3.org/1999/xlink" x="0px" y="0px"
	 viewBox="0 0 60 60" style="enable-background:new 0 0 60 60;" xml:space="preserve">
<style type="text/css">
	.st0{fill:#CDE4EB;}
	.st1{fill:#B7CBD2;}
	.st2{fill:#D9AD82;}
	.st3{fill:#E9C096;}
	.st4{fill:#EDDDCC;}
	.st5{fill:#C9A179;}
	.st6{fill:#B47F64;}
	.st7{fill:#56BFCB;}
	.st8{fill:#1298A8;}
	.st9{fill:#515D6C;}
	.st10{fill:#394453;}
	.st11{fill:#2E333C;}
	.st12{fill:#116361;}
</style>
<g id="XMLID_592_">
</g>
<g id="XMLID_595_">
</g>
<g id="XMLID_596_">
</g>
<g id="XMLID_597_">
</g>
<g id="XMLID_598_">
</g>
<g>
	<path class="st0" d="M29,33.7h5.8l0-8.3c-1,1.3-3.2,2.2-5.8,2.2V33.7z"/>
	<path class="st1" d="M23.2,25.5v8.3H29v-6.1C26.4,27.7,24.2,26.8,23.2,25.5z"/>
</g>
<g>
	<polygon class="st2" points="35.7,28.3 29,38.2 29,38.2 29,28.5 29,18.9 32.3,19.4 32.3,24 34.8,25.5 	"/>
</g>
<g>
	<polygon class="st3" points="29,28.5 29,38.2 29,38.2 22.3,28.3 23.2,25.5 25.6,24.1 25.6,19.4 29,18.9 29,23.2 	"/>
</g>
<path class="st4" d="M25.6,19.2l3.6-0.5l0,4.3c-1.5,0-2.8-0.7-3.6-1.8V19.2z"/>
<path class="st4" d="M32.9,19.2v2c-0.9,1.1-2.1,1.9-3.6,1.8h0v-4.3L32.9,19.2z"/>
<g>
	<g>
		<g>
			<g>
				<path class="st3" d="M29.3,6.9l0,15.4c-3,0.1-4.7-2.8-5.3-5.8c0,0,0,0,0,0c-0.1-0.3-0.1-0.5-0.2-0.8c-0.1-0.7-0.2-1.4-0.2-2.1
					c0-0.7,0.1-1.4,0.2-2c0.1-0.3,0.1-0.6,0.2-0.9c0.1-0.2,0.2-0.4,0.3-0.6C25.2,8.1,26.9,6.9,29.3,6.9z"/>
			</g>
		</g>
		<g>
			<g>
				<path class="st2" d="M34.9,13.6c0,0.6-0.1,1.3-0.2,2c0,0.3-0.1,0.5-0.1,0.8c-0.1,0.3-0.2,0.7-0.2,1c0,0.1,0,0.1-0.1,0.2
					c-0.2,0.6-0.4,1.2-0.7,1.8c-0.9,1.8-2.4,3.1-4.4,3l0-15.4c0.9,0,1.7,0.2,2.4,0.5c1.1,0.5,2,1.5,2.5,2.6c0,0,0,0,0,0
					c0.1,0.2,0.2,0.5,0.3,0.7v0c0,0,0,0.1,0,0.1c0.1,0.2,0.1,0.4,0.2,0.6c0.1,0.2,0.1,0.4,0.1,0.7C34.9,12.6,34.9,13.1,34.9,13.6z"
					/>
			</g>
		</g>
	</g>
	<g>
		<path class="st5" d="M29.3,4.7c-8.6,0-5.5,11-5.5,11c-0.3-1.2-0.2-1.8,0.3-2.7c0.6-1.2,1.8-1.3,1.8-1.3c1.6-0.3,2.7-0.9,3.5-1.4
			v-3l0,0V4.7z"/>
		<path class="st6" d="M29.3,4.7v2.5l0,0v3C31,8.9,31,7.5,31,7.5l0,0c0,0,0.7,1.7,2.8,4.2c0,0,1.1,1.2,1,3.1c0,0.3,0,0.5,0,0.7
			C34.8,15.5,37.9,4.7,29.3,4.7z"/>
	</g>
</g>
<g>
	<g>
		<rect x="18.5" y="61.1" class="st7" width="10.7" height="8.7"/>
		<rect x="29.2" y="61.1" class="st8" width="10.9" height="8.7"/>
	</g>
	<rect x="11" y="65.7" class="st7" width="4.3" height="0.9"/>
	<rect x="43.1" y="65.7" class="st8" width="4.3" height="0.9"/>
	<path class="st9" d="M29.2,25.6v37.9c0,0-0.3,4-2.7,6.3c-1.2,1.1-2.9,1.8-5.4,1.4L17.4,70c0,0,0.9-17.1,0.9-20.5c0,0,0-6.8-0.1-8.9
		c-0.9,6.3-2.3,21.9-2.5,24.7l0,0.2l0,0.2c0,0.1,0,0.1,0,0.1h-5l0.1-1l1.5-21.4c0.8-13.6,2.6-13.6,3.5-14.2c0.5-0.4,3.3-1.5,5.6-2.4
		c1.7-0.7,3.2-1.2,3.2-1.2H29.2z"/>
	<polygon class="st10" points="15.6,65.8 13.9,65.8 17.4,40.4 18.5,37.7 	"/>
	<path class="st10" d="M47.8,65.8h-5l0-0.2c-0.2-2-1.6-18.3-2.6-24.9c0,0,0-0.1,0-0.1c-0.1,2.1-0.1,8.9-0.1,8.9
		c0,3.4,0.9,20.5,0.9,20.5l-3.7,1.2c-2.5,0.4-4.2-0.3-5.4-1.4c-2.4-2.3-2.6-6.3-2.6-6.3V25.6h4.7c0,0,0.1,0,0.2,0.1
		c0.4,0.2,1.7,0.6,3.1,1.1c1.5,0.6,3.2,1.2,4.4,1.8c0.6,0.3,1.1,0.5,1.3,0.6c0.4,0.3,1.1,0.5,1.8,2.4c0.6,1.8,1.3,5.2,1.7,11.8
		L47.8,65.8z"/>
	<path class="st7" d="M29.2,24.7v20.2l-0.2-0.9l-4.3-17.6v-2.3l0.4-2.1C26.6,24.3,29.2,24.7,29.2,24.7z"/>
	<path class="st8" d="M34.1,26l-4.8,18.3l-0.2,0.6V24.7c0,0,2.6-0.3,4-2.7l0.4,2.1l0.4,1.5L34.1,26z"/>
	<path class="st10" d="M24.2,34.4l1-2.5l-1.9,0.7l-2.3-5.7c0,0,0.1-0.1,0.2-0.2c0.5-0.5,2-2,3.4-2.7l0.3,1.5l2.5,11.5l0.6,2.9
		l0.8,3.9l0.2,1.1L24.2,34.4z"/>
	<path class="st11" d="M35,32.6L33.1,32l1,2.5L29.2,45l0,0l0,0v0l0.2-0.7l1.1-5.1l0.4-2.1l2.5-11.6l0.3-1.5c1.5,0.6,3,2.2,3.5,2.7
		c0.1,0.1,0.2,0.2,0.2,0.2L35,32.6z"/>
	<polygon class="st8" points="24.7,24.1 26.3,29.6 29.2,24.7 26.3,28.7 	"/>
	<polygon class="st12" points="33.6,24.1 32,29.6 29.2,24.7 32.1,28.7 	"/>
	<rect x="33.2" y="41.7" class="st11" width="4.8" height="0.8"/>
	<polygon class="st11" points="42.7,65.8 44.4,65.8 41,39.8 39.8,37.7 	"/>
	<path class="st11" d="M28.9,58.3c0,0.4-0.3,0.7-0.7,0.7c-0.4,0-0.7-0.3-0.7-0.7c0-0.4,0.3-0.7,0.7-0.7
		C28.5,57.5,28.9,57.9,28.9,58.3z"/>
	<path class="st11" d="M28.9,54c0,0.4-0.3,0.7-0.7,0.7c-0.4,0-0.7-0.3-0.7-0.7c0-0.4,0.3-0.7,0.7-0.7C28.5,53.2,28.9,53.6,28.9,54z"
		/>
	<path class="st11" d="M28.9,49.8c0,0.4-0.3,0.7-0.7,0.7c-0.4,0-0.7-0.3-0.7-0.7c0-0.4,0.3-0.7,0.7-0.7
		C28.5,49.1,28.9,49.4,28.9,49.8z"/>
	<rect x="18.1" y="57.9" transform="matrix(0.9755 -0.2201 0.2201 0.9755 -12.2925 5.9545)" class="st10" width="5" height="0.5"/>
	<rect x="37.3" y="55.6" transform="matrix(0.2201 -0.9755 0.9755 0.2201 -27.4541 81.949)" class="st11" width="0.5" height="5"/>
	<polygon class="st11" points="29.2,24.7 31.2,28.1 29.2,29.6 	"/>
	<polygon class="st9" points="29.2,24.7 27.2,28.1 29.2,29.6 	"/>
	<polygon class="st9" points="28.2,28.9 27.5,37.2 29.2,44.9 29.2,29.6 	"/>
	<polygon class="st11" points="30.1,28.8 30.9,37.2 29.2,44.9 29.2,29.6 	"/>
</g>
</svg>
