<?xml version="1.0" encoding="utf-8"?>
<!-- Generator: Adobe Illustrator 22.0.0, SVG Export Plug-In . SVG Version: 6.00 Build 0)  -->
<svg version="1.1" id="图层_1" xmlns="http://www.w3.org/2000/svg" xmlns:xlink="http://www.w3.org/1999/xlink" x="0px" y="0px"
	 viewBox="0 0 243.4 244.2" style="enable-background:new 0 0 243.4 244.2;" xml:space="preserve">
<style type="text/css">
	.st0{fill:#3F266E;}
</style>
<g>
	<path class="st0" d="M112.9,244.2c-0.3-0.2-0.6-0.6-0.9-0.6c-6.5-0.4-12.9-1.5-19.2-3.1c-3.6-0.9-7.2-2.1-10.8-3.2
		c-6.2-1.9-12-4.6-17.7-7.7c-2.6-1.4-5.3-2.5-7.6-4.2c-6.1-4.3-12.4-8.6-17.7-13.9c-2.1-2.1-4-4.3-6-6.4c-2.2-2.3-4.6-4.5-6.5-7
		c-2.6-3.3-4.9-6.7-7.2-10.2c-2-3-3.7-6.1-5.4-9.2c-1.4-2.5-2.5-5.2-3.7-7.8c-1.3-3.2-2.8-6.3-3.7-9.6c-1.8-6.4-3.4-12.9-4.9-19.5
		c-0.7-3.1-0.8-6.3-1-9.4c-0.3-4.6-0.6-9.2-0.5-13.7c0.1-6.8,0.8-13.5,2.3-20.1c0.9-4,1.7-8,2.9-11.9c1.3-4.3,3-8.5,4.7-12.7
		c0.9-2.3,2.3-4.4,3.5-6.7c1.5-2.9,2.8-5.8,4.4-8.7c0.9-1.6,2-3.2,3-4.7c2-2.8,4-5.8,6.3-8.4c3.1-3.6,6.3-7.1,9.6-10.4
		c2.6-2.6,5.3-5.1,8.1-7.5c2.5-2.1,5.2-3.8,7.9-5.7c2.8-2,5.7-4,8.6-5.7c1.9-1.1,4-1.8,6-2.8c1.7-0.9,3.2-2,4.9-2.7
		C76,9,79.9,7.5,84,6.2c4.1-1.3,8.2-2.6,12.4-3.5c5.4-1.1,10.8-1.9,16.2-2.4c4.5-0.4,9.1-0.3,13.6-0.2c2.8,0,5.6,0.3,8.4,0.6
		c3.5,0.4,7,1.1,10.5,1.7c2.4,0.4,4.9,0.8,7.3,1.5c2.9,0.8,5.8,1.8,8.7,2.8c3.2,1.1,6.4,2.1,9.4,3.5c4,1.8,7.8,3.7,11.6,5.8
		c9.8,5.4,18.6,12.3,26.5,20.3c3.7,3.8,7.3,7.9,10.5,12.1c3.2,4.2,6.1,8.6,8.7,13.2c2.5,4.4,4.7,9,6.6,13.6c2.1,5,4.1,10.2,5.4,15.4
		c1.5,5.8,2.5,11.8,3.2,17.8c0.5,4.8,0.3,9.7,0.4,14.6c0,3.4,0.2,6.7,0,10.1c-0.2,3.3-0.8,6.7-1.3,10c-0.5,2.9-1.1,5.8-1.8,8.8
		c-0.4,1.7-0.9,3.3-1.5,4.9c-1.1,3.5-2,7.2-3.5,10.5c-2.7,6.1-5.4,12.3-9.2,17.9c-2.9,4.4-5.7,8.9-9,13c-3.3,4.1-7.1,7.7-10.8,11.5
		c-1.8,1.9-3.7,3.8-5.7,5.5c-2.6,2.2-5.4,4.1-8.2,6.1c-2.5,1.8-5.1,3.6-7.8,5.2c-4.4,2.5-9,4.9-13.6,7.1c-3.2,1.5-6.6,2.9-10,4
		c-3.1,1.1-6.4,1.9-9.6,2.6c-3.7,0.9-7.5,1.7-11.2,2.4c-2.6,0.5-5.3,0.6-8,0.9c-0.4,0.1-0.8,0.4-1.2,0.6
		C125,244.2,118.9,244.2,112.9,244.2z M121.9,241.5c66.1,0,118.2-52.9,119.5-116.9c1.4-68.3-54-123-121.3-122
		C55.8,3.5,0.1,56.4,2.5,126.6C4.7,189.5,56.1,241.3,121.9,241.5z"/>
	<path class="st0" d="M122.3,238.5C59.5,239,5.4,188,5.7,121.6C6,57.9,57.2,5.4,123,5.9c65.9,0.5,116.3,54.3,115.5,117.9
		C237.6,187.8,185,238.8,122.3,238.5z M148.3,21.2c2.3,0.4,3,0,3.7-2.2c0.1-0.4,0.3-0.9,0.4-1.3c0.4-1.2,0.4-2.2-1.3-2.3
		c-0.5-0.1-1-0.4-1.6-0.6c0-0.8-0.2-1.6-0.7-1.8c-0.8-0.3-2.2-0.5-2.4-0.2c-0.7,1-1.4,0.9-2.2,0.6c-0.8-0.3-1.3-0.1-1.6,0.8
		c-0.3,1,0.1,1.4,1,1.6c0.3,0.1,0.6,0.3,1.3,0.7c-1.6,0.8-2.9,1.5-4.5,2.3c1,0.9,1.8,1.6,2.7,2.4c0.2,0.2-0.1,1,0.1,1.2
		c1.1,1,0.2,1.8-0.1,2.7c-0.2,0.6-0.4,1.1-0.7,1.8c3.9,1.1,7.7,2.2,11.7,3.3c-0.3,0.8-0.6,1.5-0.8,2.2c-0.2,0-0.3-0.1-0.5-0.1
		c-0.2-0.9,0.5-2-1.1-2.4c-3.7-0.8-7.4-1.9-11.1-2.9c-0.9-0.2-1.4-0.4-1.7,0.7c-0.4,1.2,0.5,1.3,1.2,1.5c3.3,0.9,6.7,1.8,10,2.8
		c0.5,0.1,1.2,0.9,1.2,1.2c-0.2,1.6,0.8,1.8,1.9,1.9c2.4,0.2,3.1-0.3,3.8-2.5c0.1-0.4,0.2-0.8,0.3-1.2c0.8-2.6,0.8-2.6-1.8-3.7
		c-0.2-0.1-0.3-0.2-0.6-0.3c0.3-0.7,0.5-1.4,0.8-2c0.5-1.1,0.6-1.8-0.9-2.2C152.8,22.7,150.6,21.9,148.3,21.2L148.3,21.2z M155,82.6
		c-0.1,0.7-0.2,1.2-0.3,1.7c-2.9,11.4-6.8,22.5-11.9,33.1c-4.5,9.5-9.9,18.5-17,26.3c-0.3,0.3-0.5,0.7-0.8,1.1
		c-0.7,0.7-1.3,1.7-2.1,2c-2.5,0.8-5,1.5-7.6,1.9c-10.5,1.6-21.1,1.8-31.7,2c-0.8,0-1.6,0.1-2.3-0.1c-4.8-1.2-7.5,1.4-8.7,5.7
		c-0.5,1.9-0.9,3.9-1.7,5.7c-2.9,6.3-5.9,12.6-8.9,18.8c-0.5,1-0.3,1.5,0.5,2.2c6.2,6.1,13.1,11,20.9,14.9
		c12.5,6.3,25.6,9.3,39.6,9.1c14.3-0.2,27.7-3.7,40.2-10.6c16-8.9,28.1-21.6,35.8-38.2c11.4-24.9,11.1-49.9-0.9-74.5
		c-8.6-17.6-22.2-30.6-39.9-39c-16.7-7.9-34.3-9.9-52.4-6.5c-18.5,3.5-34.2,12.4-46.9,26.3c-12.7,13.9-19.9,30.3-21.7,49
		c-1.3,13.3,0.3,26.2,5.2,38.7c1.4,3.5,3.1,7,4.8,10.9c0.5-1,0.8-1.4,1-1.9c2.2-4.6,4.5-9.2,6.7-13.8c1.4-2.8,2.9-5.6,4.1-8.6
		c1.4-3.7,2.6-4.6,6.5-4.7c14-0.3,28-0.7,42-1c1.1,0,1.8-0.4,2.4-1.3c1.4-2.3,3-4.5,4.4-6.9c7.9-13.3,14.7-27.3,21.1-41.4
		c0.5-1,1-1.3,2.1-1.3c5.4,0.1,10.7,0,16.1,0C154,82.5,154.4,82.6,155,82.6z M55,189.1c-4.2,3.5-8.4,6.9-12.6,10.4
		c1.5,1.4,2.9,2.7,4.3,4c3.3-3,6.5-5.9,9.6-8.7c-0.2,4.8-0.4,9.5-0.6,14.2c0,0.5,0.1,1.3,0.4,1.5c2.3,1.5,4.7,3,7.2,4.5
		c3.2-4.4,6.2-8.6,9.4-12.9c-1.5-0.9-2.8-1.7-4.3-2.5c-2.6,3.2-5.2,6.3-7.7,9.4c-0.2-0.1-0.3-0.1-0.5-0.2c0.2-4.5,0.4-9,0.6-13.5
		c0-0.5,0-1.1-0.3-1.4C58.7,192.3,56.9,190.8,55,189.1z M103.4,212.6c-1.1,5-2.3,9.8-3.4,14.8c2.1,0.3,4,0.6,6,0.9
		c0.7-4.1,1.4-8.1,2.1-12.3c0.3,0.4,0.4,0.6,0.6,0.8c2.7,3.8,5.4,7.6,8.1,11.3c0.3,0.4,0.7,0.9,1.1,0.9c2.9,0.1,5.9,0,9,0
		c-0.3-5-0.5-9.7-0.8-14.3c0-0.3-0.4-0.8-0.7-0.8c-1.5-0.1-2.9,0-4.6,0c0,4.1,0,7.8,0,11.5c-0.2,0.1-0.3,0.1-0.5,0.2
		c-2.7-3.7-5.4-7.3-8.1-10.9c-0.4-0.5-1-1.1-1.6-1.3C108.3,213.2,105.9,213,103.4,212.6z M35.7,80.1c2.2,1.6,2.3,1.6,3.4-0.5
		c0.7-1.4,1.5-2.7,2.1-4.1c0.6-1.5,1.5-1.8,2.8-0.9c0.9,0.6,1.4,0.4,1.9-0.6c0.9-1.7,0.9-1.7-0.8-2.6c-0.4-0.2-0.8-0.5-1.3-0.8
		c0.8-1.6,1.6-3.1,2.4-4.7c1.1-2.2,1.1-2.2-1.1-3.1c-0.1,0-0.2,0-0.5,0.1c-0.9,1.8-1.9,3.6-2.9,5.4c-0.2,0.4-0.8,0.6-1.2,0.8
		c-0.1-0.1-0.2-0.3-0.3-0.4c0.8-1.5,1.5-3.1,2.3-4.8c-0.9-0.4-1.6-0.7-2.4-1.1c-0.9,1.6-1.8,3.2-2.7,4.8c-1.2-1-1.8-0.4-2.4,0.5
		c0.8-1.9,1.8-3.8,2.7-5.6c0.4-0.8,0.3-1.2-0.5-1.7c-1-0.5-1.5-0.4-2,0.7c-0.9,2-2,3.8-2.9,5.6c-0.8-0.4-1.3-0.7-2-1.1
		c0.5-1,1.1-2.2,1.7-3.3c0.4-0.8,0.8-1.6,2-1c0.2,0.1,0.7-0.1,0.9-0.3c1.4-1.6,1.2-2.5-0.7-3.4c-0.4-0.2-0.7-0.3-1.1-0.5
		c-0.7-0.4-1.2-0.3-1.6,0.5c-2.5,4.9-5.1,9.7-7.6,14.5c-0.2,0.3-0.4,0.8-0.3,1.1c0.3,1,3.8,1.8,4.6,1.2c0.8,0.4,1.6,0.7,2.4,1.1
		c0.5-0.7,0.9-1.3,1.6-2.3c0.2,1.4,0.4,2.4,0.6,3.4c2.4,1.2,2.4,1.2,3.6-1.2c0.6-1.3,1.3-2.5,2-3.8c0.2,0,0.4,0.1,0.6,0.1
		c0,0.5,0.1,1-0.1,1.5C38,75.8,36.8,77.9,35.7,80.1z M78.9,36.8c2.3,2.2,2.4,2.2,4.9,0.4c1.2-0.9,2.6-1.8,3.4-3
		c1.2-1.8,2.8-2,4.6-1.7c0.4,0.1,0.7,0.1,1.1,0.2c2.7,0.4,2.7,0.4,3.3-2.2c0-0.2,0-0.4,0.1-0.8c-1.4-0.1-2.8-0.4-4.1-0.3
		c-1.6,0.1-1.9-0.4-1.9-2c0-1.6,0.5-2.5,2-2.9c0.6-0.2,1.2-0.5,1.8-0.8c-0.5-2.5-0.8-2.7-3-1.7c-2.3,1-4.6,1.9-7,2.9
		c0-1,0-1.7,0-2.5c-0.7,0-1.4-0.1-2.4-0.1c1.7-0.7,3.2-1.4,4.7-2c0.8-0.4,1.4-0.3,1.7,0.6c0.3,0.8,0.9,0.9,1.6,0.6
		c0.6-0.3,1.3-0.6,2-1c-0.6-1.3-1.1-2.4-1.5-3.5c-0.3-0.8-0.8-0.9-1.6-0.6c-1.4,0.6-2.9,1.1-4.2,1.8c-0.9,0.4-1.6,0.4-2.1-0.6
		c-0.2-0.3-0.9-0.7-1.3-0.6c-0.9,0.3-1.7,0.8-2.7,1.2c0.4,0.7,0.7,1.3,1.1,2c-1.9,0.8-3.8,1.5-5.6,2.3c-0.4,0.2-1.1,0.7-1,0.9
		c0.5,1.3,1,2.7,1.8,3.8c0.2,0.2,1.7-0.5,2.6-0.8c0.1,0,0.1-0.2,0.1-0.3c-0.6-2,0.3-2.9,2.8-2.9c0.8,2.7,0.5,3.3-2,4.3
		c-0.9,0.4-1.8,0.7-2.7,1.1c-0.8,0.3-1,0.7-0.6,1.5c0.4,0.6,0.4,1.5,1.6,1c1.1-0.5,2.3-0.9,3.6-1.3c-0.1,1.1-0.2,2-0.2,3
		c1.5,0,2.9,0,4.3,0c0.1,0.1,0.1,0.3,0.2,0.4C82.4,34.3,80.6,35.6,78.9,36.8z M214.5,181.6c3.6-6.1,6.4-12.4,8.4-19.2
		c-1.1-0.3-1.9-0.5-2.6-0.7c-1.8,4.4-3.5,8.6-5.2,13c-1.5-0.7-2.7-1.2-3.9-1.7c1.5-3.8,3-7.4,4.5-11.2c-1.2-0.3-2.1-0.5-2.9-0.7
		c-1.5,3.7-2.9,7.1-4.4,10.7c-1.3-0.6-2.4-1-3.4-1.4c1.5-3.8,2.9-7.4,4.4-11c-2.8-1.2-2.7-1.2-3.7,1.2c-1.6,3.9-3.4,7.7-5.1,11.5
		c-0.3,0.7-0.7,1.3-1.1,2.1C204.6,176.7,209.4,179.1,214.5,181.6z M47.2,180.1c-2.9,1.8-5.6,3.5-8.4,5.2c-1.8,1.1-3.7,1.1-5.2-0.4
		c-1.2-1.2-2.2-2.6-2.9-4.1c-1.4-2.9-0.6-4.6,2.4-5.9c2.8-1.2,5.6-2.5,8.4-3.8c-0.8-1.7-1.6-3.3-2.4-5c-3.2,1.2-6.3,2.4-9.4,3.6
		c-2.5,1-3.6,2.4-3.4,5c0.6,6.9,4,12.1,9.8,15.7c1.5,0.9,3.4,1.3,5,0.3c3.2-1.9,6.3-4.1,9.5-6.2C49.3,182.8,48.3,181.5,47.2,180.1z
		 M169.9,219.6c1-0.4,2-1,3-1.3c1.8-0.5,2.6-1.6,2.3-3.5c-0.2-0.9,0.3-1.5,1.1-1.9c2.1-1.1,4.3-2.2,6.2-3.6c1.6-1.1,3-1.2,4.6-0.5
		c0.5,0.2,1.3,0.5,1.7,0.3c1.6-1,3.1-2.2,4.6-3.3c-6-2.2-11.8-4.3-17.7-6.4c-0.4-0.1-0.9,0-1.3,0.2c-1.3,0.7-2.6,1.5-3.8,2.3
		c-0.4,0.2-0.7,0.8-0.7,1.2C169.9,208.4,169.9,213.9,169.9,219.6z M94.7,226.5c-0.1-0.6-0.2-0.9-0.3-1.3c-1-3.6-2.3-7.1-2.8-10.8
		c-0.5-3.5-1.5-6-5.4-6.3c-0.1,0-0.2-0.1-0.3-0.1c-0.7,0.1-1.6-0.1-2.2,0.3c-4.7,2.6-9.3,5.4-13.9,8.1c-0.5,0.3-1,0.6-1.8,1
		c1,0.5,1.8,0.8,2.5,1.2c2,1.2,3.8,1.4,5.7-0.2c0.4-0.3,1.4-0.3,1.9-0.1c2.4,0.8,4.8,1.7,7.3,2.4c1.6,0.5,2.6,1.1,2.8,2.9
		c0.1,0.6,0.7,1.4,1.3,1.6C91,225.7,92.7,226,94.7,226.5z M185.4,191.3c4.2,3.7,8.2,7.2,12.3,10.8c1.5-1.6,2.9-3,4.3-4.4
		c-1.6-1.2-3.1-2.5-4.7-3.7c1-1.1,1.9-1.9,2.7-2.9c0.8-1,1.6-2,2.2-3.1c1.6-2.8,1.5-5.2-0.1-6.6c-1.8-1.6-4.2-1.7-6.8,0.6
		C191.8,184.7,188.7,188,185.4,191.3z M190.3,58.2c1.6,1.1,3.1,2.1,4.5,3.1c1.9,1.4,2,1.4,3.4-0.7c-0.3-0.4-0.6-0.7-1-1.2
		c1.4-0.8,2.7-1.6,4-2.3c0.2,0.1,0.3,0.3,0.5,0.4c-0.2,0.4-0.4,1-0.8,1.2c-0.8,0.5-0.8,1-0.4,1.8c2,3.1,4,6.2,6,9.3
		c0.6,1,1.2,0.6,1.9,0.2c0.8-0.4,0.8-0.9,0.4-1.6c-0.4-0.6-0.7-1.3-1.1-1.9c1.2-0.2,2.2-0.5,3.5-0.7c0.1,0.1,0.5,0.5,1,1.1
		c0.7-0.4,1.4-0.8,2.1-1.3c-0.8-1.3-1.4-2.4-2.1-3.5c2-1.9,1.9-2.4-0.7-4.2c-0.4,0.3-0.8,0.6-1.4,1c-0.8-1.1-1.5-2.1-2.4-3.3
		c-0.7,0.6-1.8,1.2-1.7,1.6c0.4,1.9-1.3,2.3-1.9,3.7c-0.5-0.9-0.9-1.4-1.3-2.1c0.7-0.4,1.4-0.7,1.6-1.1c0.2-0.5-0.3-1.2-0.2-1.8
		c0-0.3,0.4-0.7,0.7-0.9c1-0.6,2-1.1,2.9-1.6c0.3-0.2,0.8-0.6,0.8-0.8c-0.4-0.8-0.8-1.6-1.3-2.2c-0.2-0.2-1,0.2-1.5,0.4
		c-0.7,0.3-1.5,0.8-2.1,1.2c-0.9,0.6-1.7,0.8-2.4-0.4c-0.2-0.3-1.2-0.3-1.6-0.1c-0.4,0.2-0.9,1.1-0.8,1.3c1.1,1.5,0.1,2-1,2.6
		c-0.7,0.4-1.4,0.8-2.1,1.2c-0.9,0.6-1.7,0.6-2.5-0.2c-0.7-0.8-1.4-0.7-1.9,0.2C191,57.2,190.7,57.7,190.3,58.2z M35,154.1
		c-1,0.2-1.9,0.4-2.8,0.6c-2.6,0.6-5.2,1.2-7.8,1.7c-2.1,0.4-3.6-0.3-4.3-2.1c-0.9-2.3-0.4-3.7,1.5-4.9c0.2-0.1,0.5-0.4,0.5-0.6
		c-0.3-2.2-0.6-4.3-0.9-6.5c-2.5,0.6-3.9,1.9-4.2,4.6c-0.6,4.9,0.3,9.6,3.2,13.7c1.1,1.6,2.8,2.6,4.8,2.1c3.8-0.9,7.5-2.1,11.5-3.2
		C36.1,157.7,35.6,155.9,35,154.1z M131.4,224c0.4,2.1,1.6,3.2,3.4,3.6c4.8,1,9.3,0.4,13.5-2.3c1.6-1,2.2-2.6,1.7-4.4
		c-0.9-3.1-2-6.1-3.1-9.1c-0.1-0.3-0.7-0.6-1-0.6c-1.4,0.2-2.9,0.6-4.4,0.9c0.1,0.6,0.2,1.1,0.3,1.6c0.7,2.6,1.4,5.2,2,7.8
		c0.5,1.8-0.1,2.9-1.6,3.6c-1.9,0.8-3.6,0.3-4.6-1.2c-0.2-0.3-0.7-0.7-1-0.7C135,223.5,133.2,223.8,131.4,224z M12.2,114.6
		c-0.1,0.1-0.3,0.1-0.4,0.2c0.5,1.2,0.9,2.4,1.6,3.4c0.6,0.9,1.5,1.5,2.3,2.2c1.5,1.4,3.5,1.4,5.1,0c0.7-0.6,1.4-1.2,2.1-1.8
		c2.8-2.2,2.8-5.5-0.1-7.8c-0.3-0.3-0.6-0.5-0.9-0.8c-1.7-1.5-3.7-2.2-5.6-1C14.2,110.2,11.8,111.4,12.2,114.6z M224,120
		c3.6,0,6.5-2.4,6.5-5.4c0-3.2-3-6.1-6.4-6.2c-2.9,0-6.7,3.3-6.7,5.8C217.4,117,220.8,120,224,120z M209.4,145.7
		c-0.4,2.1-0.7,4-1.1,6c5.6,1.1,11,2.1,16.6,3.2c0.4-2.5,0.8-4.7,1.3-7.2C220.5,147.1,215,146.4,209.4,145.7z M152.7,209.5
		c2,4.8,4,9.5,6,14.3c2.1-0.7,4-1.4,6.1-2.1c-2.4-4.8-4.7-9.3-7-13.9C156.1,208.3,154.5,208.8,152.7,209.5z M205.4,69.7
		c-1.8-2.8-3.5-5.4-5.2-8c-0.2-0.2-0.9-0.3-1.3-0.1c-1.8,0.9-3.5,1.9-5.2,3c-0.5,0.3-1.1,1.1-1,1.2c0.4,0.7,1.1,1.3,1.7,1.9
		c0.8,1,2.4,2.1,2.2,2.9c-0.3,1.6,0.7,2.2,1.4,3.4C200.5,72.6,202.8,71.2,205.4,69.7z M161.5,17.6c-2.5-0.7-4.8-1.4-7.1-2
		c-0.3-0.1-0.9,0.4-1,0.7c-0.5,1.5-1,3-1.4,4.5c-0.1,0.3,0.3,1.1,0.7,1.2c2,0.6,4,1.2,6,1.6c0.3,0.1,1-0.3,1.1-0.6
		C160.4,21.4,160.9,19.6,161.5,17.6z"/>
	<path class="st0" d="M115.6,190.1c1.8-3.7,3.5-7.1,5.2-10.6c4-8.2,8.1-16.4,12.1-24.6c0.2-0.4,0.3-0.8,0.4-1.1
		c0.5-1.7,1.7-2.6,3.5-2.6c6.5-0.2,13.1-0.3,19.6-0.5c2.7-0.1,5.4-0.2,8.1-0.2c1,0,1.6-0.4,2.1-1.2c4-7.2,8-14.4,11.9-21.6
		c1.6-3,2.9-6.1,4.4-9.1c0.2-0.4,0.8-0.9,1.3-1c3.8-0.1,7.6,0,11.6,0c-0.4,1.4-0.7,2.6-1,3.9c-3.1,10.7-7.2,21-13.6,30.2
		c-1.7,2.4-3.4,4.7-5.3,6.9c-0.7,0.8-1.9,1.1-3,1.4c-6.4,1.5-12.9,1.6-19.4,1.8c-2.3,0.1-4.6,0-6.9-0.1c-2-0.1-3.7,0.9-4.3,3.2
		c-1.4,5.8-4.7,10.8-7,16.3c-1.2,2.7-2.6,5.3-3.8,8c-0.4,0.8-0.9,1.2-1.8,1.2C125.1,190,120.5,190.1,115.6,190.1z"/>
	<path class="st0" d="M50.8,102.8c2-5.1,3.8-9.9,5.7-14.7c0.5-1.4,1.2-2.7,1.6-4.2c0.3-1.1,0.9-1.5,2.1-1.4
		c12.3,0.1,24.6,0.2,36.8,0.3c9.7,0.1,19.4,0.1,29.2,0.2c0.3,0,0.6,0.1,1.1,0.1c-1.1,2.6-2.2,5-3.3,7.5c-1.6,3.5-3.2,7.1-4.7,10.6
		c-0.5,1.2-1.1,1.7-2.5,1.7c-21.4-0.1-42.9,0-64.3,0C52,102.8,51.5,102.8,50.8,102.8z"/>
	<path class="st0" d="M149.4,74.5c-6.6,0-11.8-5.1-11.8-11.7c0-6.7,5.2-12,11.7-12.1c6.7-0.1,12.1,5.2,12.2,12
		C161.4,69.2,156.1,74.4,149.4,74.5z"/>
	<path class="st0" d="M191.9,94.7c4.9,0,8.7,3.9,8.7,8.8c0,4.8-3.9,8.7-8.7,8.7c-5,0-9-4-8.9-8.8C183.1,98.6,187.1,94.7,191.9,94.7z
		"/>
	<path class="st0" d="M147.5,128.2c0.8-3.4,1.5-6.5,2.3-9.6c0.1-0.3,0.6-0.8,0.9-0.8c6.9,0,13.9,0,21,0c-1,3.5-1.8,6.7-2.7,9.8
		c-0.1,0.3-0.6,0.5-0.9,0.5C161.4,128.2,154.6,128.2,147.5,128.2z"/>
	<path d="M29.2,73.3c-1.7-1.9-1.7-1.9-0.2-4C30.6,70.7,30.7,71.2,29.2,73.3z"/>
	<path d="M33.9,70.2c2.2,0.6,2.2,0.7,0.8,2C34.5,71.5,34.2,70.9,33.9,70.2z"/>
	<path class="st0" d="M86.4,26.9c0.5,2.1-0.1,2.8-1.9,2.6c-0.3,0-0.9-0.3-0.9-0.5c0-0.4,0.2-0.9,0.5-1.1
		C84.8,27.5,85.6,27.3,86.4,26.9z"/>
	<path class="st0" d="M146.3,23.5c1.9,0.6,3.8,1.1,5.6,1.6c-0.3,1.5-0.3,1.3-3,0.9C147.2,25.8,147.3,24.4,146.3,23.5z"/>
	<path class="st0" d="M148.4,21.2c-1.3-0.2-2.7-0.5-4.1-0.8c1.2-1,2.2-1.9,3.3-2.8c0.3-0.2,0.8-0.3,1.2-0.3c0,0,0.2,0.5,0.2,0.6
		c-0.3,0.2-0.7,0.4-1.1,0.5c-0.1,0.1-0.3,0-0.5,0C147.4,19.5,146.1,20.9,148.4,21.2C148.3,21.2,148.4,21.2,148.4,21.2z"/>
	<path class="st0" d="M174.4,203.4c2.4,1.1,4.6,2.2,7,3.3c-2.2,1.3-4.2,2.5-6.4,3.8C174.8,208,174.6,205.8,174.4,203.4z"/>
	<path class="st0" d="M86.1,211.5c0.3,2.4,0.5,4.5,0.8,6.9c-2.4-0.8-4.6-1.6-7.1-2.4C81.9,214.4,83.9,213,86.1,211.5z"/>
	<path class="st0" d="M194.9,192.1c-1.3-1-2.3-1.8-3.6-2.8c1.2-1.1,2.3-2.2,3.4-3.2c1-0.8,2.2-1.4,3.3-0.2c1.1,1.1,0.3,2.2-0.4,3.2
		C196.9,190.1,195.9,191,194.9,192.1z"/>
	<path d="M208.2,60.9c0.4,0.6,0.7,1.1,1.2,1.8c-1.3,0.3-2.4,0.6-3.7,0.9C206.6,62.6,207.3,61.9,208.2,60.9z"/>
	<path class="st0" d="M201.1,68.3c-0.6,0.4-1.2,0.7-1.9,1.1c-0.7-1-1.3-2-2-3C199,64.5,199.6,64.8,201.1,68.3z"/>
	<path class="st0" d="M155.9,18.7c0.6,0.2,1.1,0.3,1.8,0.5c-0.4,0.5-0.6,0.9-0.9,1.1c-0.2,0.1-0.8-0.1-0.9-0.3
		C155.7,19.7,155.9,19.2,155.9,18.7z"/>
</g>
</svg>
