<?xml version="1.0" encoding="utf-8"?>
<!-- Generator: Adobe Illustrator 22.0.0, SVG Export Plug-In . SVG Version: 6.00 Build 0)  -->
<svg version="1.1" id="图层_1" xmlns="http://www.w3.org/2000/svg" xmlns:xlink="http://www.w3.org/1999/xlink" x="0px" y="0px"
	 viewBox="0 0 473.1 190.3" style="enable-background:new 0 0 473.1 190.3;" xml:space="preserve">
<style type="text/css">
	.st0{fill:#3F266E;}
</style>
<g>
	<path class="st0" d="M88,190.3c-0.2-0.2-0.5-0.5-0.7-0.5c-5.1-0.3-10-1.1-14.9-2.4c-2.8-0.7-5.6-1.6-8.4-2.5
		c-4.8-1.5-9.4-3.6-13.8-6c-2-1.1-4.1-2-6-3.3c-4.8-3.4-9.6-6.7-13.8-10.9c-1.6-1.6-3.1-3.3-4.6-5c-1.7-1.8-3.5-3.5-5.1-5.5
		c-2-2.5-3.8-5.2-5.6-7.9c-1.5-2.3-2.9-4.7-4.2-7.2c-1.1-2-2-4-2.9-6.1c-1-2.5-2.2-4.9-2.9-7.5c-1.4-5-2.7-10.1-3.8-15.2
		c-0.5-2.4-0.6-4.9-0.8-7.3C0.2,99.6-0.1,96.1,0,92.5C0.1,87.2,0.6,82,1.8,76.8c0.7-3.1,1.3-6.3,2.2-9.3c1-3.4,2.3-6.6,3.6-9.9
		c0.7-1.8,1.8-3.5,2.7-5.2c1.1-2.2,2.2-4.5,3.4-6.7c0.7-1.3,1.5-2.5,2.4-3.6c1.6-2.2,3.1-4.5,4.9-6.6c2.4-2.8,4.9-5.5,7.5-8.1
		c2-2,4.1-4,6.3-5.8c1.9-1.6,4.1-3,6.2-4.4c2.2-1.5,4.4-3.1,6.7-4.5c1.5-0.9,3.1-1.4,4.6-2.2c1.3-0.7,2.5-1.6,3.8-2.1
		c3-1.2,6.1-2.4,9.3-3.5c3.2-1,6.4-2.1,9.7-2.7c4.2-0.8,8.4-1.5,12.6-1.9c3.5-0.3,7.1-0.2,10.6-0.2c2.2,0,4.4,0.2,6.5,0.5
		c2.7,0.3,5.5,0.8,8.2,1.3c1.9,0.3,3.8,0.6,5.7,1.1c2.3,0.6,4.5,1.4,6.7,2.2c2.5,0.9,5,1.7,7.3,2.7c3.1,1.4,6.1,2.9,9.1,4.5
		c7.7,4.2,14.5,9.6,20.6,15.8c2.9,3,5.7,6.1,8.2,9.5c2.5,3.3,4.8,6.7,6.8,10.3c1.9,3.4,3.6,7,5.1,10.6c1.6,3.9,3.2,7.9,4.2,12
		c1.2,4.5,1.9,9.2,2.5,13.9c0.4,3.8,0.3,7.6,0.3,11.4c0,2.6,0.1,5.2,0,7.9c-0.2,2.6-0.6,5.2-1,7.8c-0.4,2.3-0.9,4.6-1.4,6.8
		c-0.3,1.3-0.7,2.6-1.1,3.8c-0.9,2.7-1.6,5.6-2.7,8.2c-2.1,4.8-4.2,9.6-7.2,14c-2.3,3.4-4.4,7-7,10.2c-2.6,3.2-5.5,6-8.4,9
		c-1.4,1.5-2.9,3-4.5,4.3c-2,1.7-4.2,3.2-6.4,4.7c-2,1.4-4,2.8-6.1,4c-3.5,1.9-7,3.8-10.6,5.5c-2.5,1.2-5.1,2.2-7.8,3.1
		c-2.4,0.8-5,1.4-7.5,2c-2.9,0.7-5.8,1.3-8.8,1.9c-2.1,0.4-4.2,0.4-6.2,0.7c-0.3,0-0.6,0.3-1,0.5C97.4,190.3,92.7,190.3,88,190.3z
		 M95,188.2c51.5,0,92.1-41.2,93.1-91.1C189.1,43.9,146,1.3,93.5,2C43.5,2.7,0.1,44,2,98.7C3.7,147.6,43.7,188.1,95,188.2z"/>
	<path class="st0" d="M95.3,185.8c-48.9,0.4-91-39.4-90.8-91.1C4.7,45.1,44.6,4.2,95.8,4.6c51.3,0.4,90.6,42.3,90,91.8
		C185.2,146.3,144.2,186.1,95.3,185.8z M115.6,16.5c1.8,0.3,2.4,0,2.9-1.7c0.1-0.3,0.2-0.7,0.3-1c0.3-1,0.3-1.7-1-1.8
		c-0.4,0-0.8-0.3-1.2-0.4c0-0.6-0.2-1.3-0.5-1.4c-0.6-0.2-1.7-0.4-1.9-0.2c-0.5,0.8-1.1,0.7-1.7,0.5c-0.6-0.2-1-0.1-1.3,0.6
		c-0.3,0.8,0.1,1.1,0.8,1.3c0.2,0.1,0.4,0.2,1,0.5c-1.3,0.7-2.2,1.2-3.5,1.8c0.8,0.7,1.4,1.3,2.1,1.9c0.2,0.2-0.1,0.8,0.1,0.9
		c0.9,0.8,0.2,1.4,0,2.1c-0.1,0.4-0.3,0.9-0.5,1.4c3.1,0.9,6,1.7,9.1,2.5c-0.3,0.7-0.5,1.2-0.7,1.7c-0.1,0-0.2-0.1-0.4-0.1
		c-0.1-0.7,0.4-1.6-0.8-1.8c-2.9-0.7-5.8-1.4-8.6-2.2c-0.7-0.2-1.1-0.3-1.3,0.6c-0.3,0.9,0.4,1,0.9,1.2c2.6,0.7,5.2,1.4,7.8,2.2
		c0.4,0.1,0.9,0.7,0.9,1c-0.1,1.2,0.6,1.4,1.5,1.5c1.9,0.2,2.4-0.2,2.9-2c0.1-0.3,0.2-0.6,0.3-0.9c0.6-2.1,0.6-2-1.4-2.9
		c-0.1-0.1-0.3-0.2-0.4-0.3c0.2-0.6,0.4-1.1,0.7-1.6c0.4-0.9,0.5-1.4-0.7-1.7C119.1,17.7,117.4,17.1,115.6,16.5L115.6,16.5z
		 M120.8,64.4c-0.1,0.5-0.2,0.9-0.3,1.3c-2.3,8.9-5.3,17.5-9.3,25.8c-3.5,7.4-7.7,14.4-13.2,20.5c-0.2,0.3-0.4,0.6-0.7,0.8
		c-0.5,0.5-1,1.3-1.6,1.5c-1.9,0.6-3.9,1.2-5.9,1.5c-8.2,1.3-16.4,1.4-24.7,1.6c-0.6,0-1.2,0.1-1.8-0.1c-3.7-1-5.9,1.1-6.8,4.4
		c-0.4,1.5-0.7,3-1.4,4.4c-2.2,4.9-4.6,9.8-6.9,14.7c-0.4,0.7-0.2,1.2,0.4,1.7c4.8,4.7,10.2,8.6,16.3,11.6c9.7,4.9,20,7.2,30.9,7.1
		c11.2-0.1,21.6-2.8,31.3-8.2c12.5-6.9,21.9-16.8,27.9-29.8c8.9-19.4,8.7-38.9-0.7-58c-6.7-13.8-17.3-23.8-31.1-30.4
		c-13-6.2-26.7-7.7-40.8-5.1C68,32.7,55.8,39.6,45.9,50.4C36,61.3,30.3,74.1,28.9,88.7c-1,10.3,0.3,20.4,4.1,30.2
		c1.1,2.8,2.4,5.4,3.7,8.5c0.4-0.7,0.6-1.1,0.8-1.5c1.7-3.6,3.5-7.2,5.2-10.7c1.1-2.2,2.3-4.4,3.2-6.7c1.1-2.9,2-3.6,5.1-3.7
		c10.9-0.3,21.8-0.5,32.8-0.8c0.9,0,1.4-0.3,1.9-1c1.1-1.8,2.3-3.5,3.4-5.3c6.2-10.4,11.4-21.3,16.5-32.2c0.4-0.8,0.8-1,1.6-1
		c4.2,0,8.4,0,12.6,0C120,64.3,120.3,64.3,120.8,64.4z M42.9,147.4c-3.3,2.7-6.5,5.4-9.9,8.1c1.2,1.1,2.3,2.1,3.4,3.1
		c2.6-2.4,5.1-4.6,7.5-6.8c-0.2,3.7-0.3,7.4-0.4,11.1c0,0.4,0.1,1,0.3,1.2c1.8,1.2,3.7,2.3,5.6,3.5c2.5-3.4,4.9-6.7,7.3-10
		c-1.2-0.7-2.2-1.3-3.3-2c-2,2.5-4,4.9-6,7.3c-0.1,0-0.3-0.1-0.4-0.1c0.1-3.5,0.3-7,0.4-10.5c0-0.4,0-0.9-0.2-1.1
		C45.7,149.9,44.3,148.7,42.9,147.4z M80.6,165.7c-0.9,3.9-1.8,7.6-2.7,11.6c1.6,0.2,3.1,0.4,4.7,0.7c0.5-3.2,1.1-6.3,1.6-9.6
		c0.2,0.3,0.3,0.5,0.5,0.6c2.1,2.9,4.2,5.9,6.3,8.8c0.2,0.3,0.6,0.7,0.9,0.7c2.3,0.1,4.6,0,7,0c-0.2-3.9-0.4-7.5-0.6-11.2
		c0-0.2-0.3-0.6-0.5-0.6c-1.1-0.1-2.3,0-3.6,0c0,3.2,0,6.1,0,9c-0.1,0.1-0.3,0.1-0.4,0.2c-2.1-2.8-4.2-5.7-6.3-8.5
		c-0.3-0.4-0.8-0.9-1.2-1C84.4,166.1,82.6,166,80.6,165.7z M27.8,62.4c1.8,1.2,1.8,1.2,2.7-0.4c0.6-1.1,1.2-2.1,1.6-3.2
		c0.5-1.2,1.2-1.4,2.2-0.7c0.7,0.4,1.1,0.3,1.5-0.5c0.7-1.3,0.7-1.3-0.6-2c-0.3-0.2-0.6-0.4-1-0.6c0.6-1.2,1.2-2.4,1.8-3.6
		c0.9-1.7,0.9-1.7-0.9-2.4c-0.1,0-0.2,0-0.4,0c-0.7,1.4-1.5,2.8-2.3,4.2c-0.2,0.3-0.6,0.4-0.9,0.7c-0.1-0.1-0.1-0.2-0.2-0.3
		c0.6-1.2,1.2-2.4,1.8-3.7c-0.7-0.3-1.2-0.6-1.9-0.9c-0.7,1.3-1.4,2.5-2.1,3.8c-0.9-0.8-1.4-0.3-1.8,0.4c0.7-1.5,1.4-3,2.1-4.4
		c0.3-0.6,0.2-1-0.4-1.3c-0.8-0.4-1.2-0.3-1.6,0.5c-0.7,1.5-1.6,3-2.3,4.4c-0.6-0.3-1-0.6-1.5-0.9c0.4-0.8,0.9-1.7,1.3-2.6
		c0.3-0.6,0.6-1.2,1.5-0.8c0.2,0.1,0.5-0.1,0.7-0.3c1.1-1.2,0.9-1.9-0.6-2.7c-0.3-0.1-0.6-0.3-0.9-0.4c-0.5-0.3-0.9-0.3-1.2,0.4
		c-2,3.8-3.9,7.6-5.9,11.3c-0.1,0.3-0.3,0.6-0.2,0.9c0.3,0.8,2.9,1.4,3.5,1c0.6,0.3,1.2,0.6,1.9,0.9c0.4-0.5,0.7-1,1.3-1.8
		c0.2,1.1,0.3,1.8,0.5,2.6c1.9,0.9,1.9,0.9,2.8-0.9c0.5-1,1-2,1.6-2.9c0.1,0,0.3,0,0.4,0.1c0,0.4,0.1,0.8-0.1,1.1
		C29.6,59.1,28.7,60.7,27.8,62.4z M61.5,28.7c1.8,1.7,1.9,1.7,3.8,0.3c1-0.7,2-1.4,2.7-2.4c1-1.4,2.2-1.5,3.6-1.3
		c0.3,0,0.6,0.1,0.8,0.1c2.1,0.3,2.1,0.3,2.6-1.8c0-0.2,0-0.3,0.1-0.7c-1.1-0.1-2.1-0.3-3.2-0.2c-1.2,0.1-1.5-0.3-1.5-1.5
		c0-1.3,0.4-1.9,1.6-2.2c0.5-0.1,0.9-0.4,1.4-0.6c-0.4-2-0.6-2.1-2.3-1.4c-1.8,0.8-3.5,1.5-5.4,2.2c0-0.8,0-1.3,0-2
		c-0.6,0-1.1-0.1-1.9-0.1c1.4-0.6,2.5-1.1,3.6-1.6c0.6-0.3,1.1-0.2,1.4,0.4c0.3,0.6,0.7,0.7,1.2,0.4c0.5-0.2,1-0.5,1.6-0.8
		c-0.4-1-0.8-1.8-1.2-2.7c-0.3-0.6-0.6-0.7-1.2-0.5c-1.1,0.5-2.2,0.9-3.3,1.4c-0.7,0.3-1.2,0.3-1.6-0.5c-0.1-0.3-0.7-0.5-1-0.5
		c-0.7,0.2-1.4,0.6-2.1,1c0.3,0.6,0.5,1,0.8,1.6c-1.5,0.6-3,1.2-4.4,1.8c-0.3,0.1-0.8,0.6-0.8,0.7c0.4,1,0.8,2.1,1.4,3
		c0.1,0.2,1.3-0.4,2-0.6c0.1,0,0.1-0.1,0.1-0.2c-0.5-1.5,0.2-2.3,2.2-2.2c0.6,2.1,0.4,2.6-1.6,3.3c-0.7,0.3-1.4,0.6-2.1,0.9
		c-0.6,0.2-0.8,0.6-0.4,1.2c0.3,0.5,0.3,1.2,1.2,0.8c0.9-0.4,1.8-0.7,2.8-1c-0.1,0.9-0.1,1.6-0.2,2.3c1.2,0,2.3,0,3.4,0
		c0.1,0.1,0.1,0.2,0.2,0.3C64.2,26.7,62.8,27.7,61.5,28.7z M167.1,141.5c2.8-4.8,5-9.7,6.6-15c-0.8-0.2-1.5-0.4-2-0.5
		c-1.4,3.4-2.7,6.7-4.1,10.1c-1.2-0.5-2.1-0.9-3-1.3c1.2-3,2.3-5.8,3.5-8.7c-1-0.2-1.6-0.4-2.2-0.5c-1.2,2.9-2.3,5.6-3.4,8.3
		c-1-0.4-1.9-0.8-2.6-1.1c1.2-3,2.3-5.8,3.4-8.6c-2.2-1-2.1-0.9-2.9,0.9c-1.2,3-2.6,6-3.9,8.9c-0.2,0.5-0.5,1-0.9,1.6
		C159.4,137.7,163.2,139.6,167.1,141.5z M36.8,140.3c-2.3,1.4-4.4,2.7-6.5,4c-1.4,0.9-2.9,0.9-4-0.3c-0.9-0.9-1.7-2-2.3-3.2
		c-1.1-2.3-0.5-3.6,1.8-4.6c2.2-0.9,4.3-1.9,6.6-3c-0.7-1.4-1.3-2.6-1.9-3.9c-2.5,0.9-4.9,1.8-7.3,2.8c-1.9,0.7-2.8,1.9-2.6,3.9
		c0.4,5.4,3.1,9.4,7.6,12.2c1.2,0.7,2.7,1,3.9,0.3c2.5-1.5,4.9-3.2,7.4-4.9C38.5,142.5,37.6,141.4,36.8,140.3z M132.4,171.1
		c0.8-0.3,1.5-0.8,2.4-1c1.4-0.4,2-1.2,1.8-2.7c-0.1-0.7,0.2-1.1,0.9-1.5c1.6-0.9,3.3-1.7,4.8-2.8c1.2-0.9,2.3-1,3.6-0.4
		c0.4,0.2,1,0.4,1.3,0.2c1.3-0.8,2.4-1.7,3.6-2.6c-4.7-1.7-9.2-3.3-13.8-5c-0.3-0.1-0.7,0-1,0.1c-1,0.6-2,1.1-3,1.8
		c-0.3,0.2-0.6,0.6-0.6,0.9C132.4,162.4,132.4,166.7,132.4,171.1z M73.8,176.5c-0.1-0.5-0.2-0.7-0.2-1c-0.8-2.8-1.8-5.6-2.2-8.4
		c-0.4-2.7-1.2-4.6-4.2-4.9c-0.1,0-0.2-0.1-0.2-0.1c-0.6,0.1-1.3,0-1.7,0.2c-3.6,2.1-7.2,4.2-10.9,6.3c-0.4,0.2-0.8,0.4-1.4,0.7
		c0.8,0.4,1.4,0.6,1.9,0.9c1.5,1,3,1.1,4.5-0.1c0.3-0.3,1.1-0.2,1.5-0.1c1.9,0.6,3.7,1.4,5.7,1.9c1.2,0.4,2,0.9,2.2,2.3
		c0.1,0.5,0.5,1.1,1,1.3C70.9,175.9,72.2,176.1,73.8,176.5z M144.4,149.1c3.2,2.8,6.4,5.6,9.6,8.4c1.2-1.2,2.2-2.3,3.3-3.5
		c-1.2-1-2.4-1.9-3.7-2.9c0.8-0.8,1.5-1.5,2.1-2.3c0.6-0.8,1.2-1.6,1.7-2.4c1.2-2.2,1.2-4-0.1-5.2c-1.4-1.3-3.3-1.3-5.3,0.5
		C149.4,144,147,146.5,144.4,149.1z M148.3,45.4c1.3,0.9,2.4,1.6,3.5,2.4c1.5,1.1,1.6,1.1,2.6-0.5c-0.2-0.3-0.5-0.6-0.8-0.9
		c1.1-0.6,2.1-1.2,3.1-1.8c0.1,0.1,0.3,0.2,0.4,0.3c-0.2,0.3-0.3,0.8-0.6,1c-0.6,0.4-0.7,0.8-0.3,1.4c1.6,2.4,3.1,4.8,4.7,7.2
		c0.5,0.8,1,0.4,1.5,0.2c0.6-0.3,0.7-0.7,0.3-1.3c-0.3-0.5-0.6-1-0.8-1.5c0.9-0.2,1.7-0.4,2.7-0.6c0.1,0.1,0.4,0.4,0.7,0.8
		c0.5-0.3,1.1-0.7,1.6-1c-0.6-1-1.1-1.9-1.6-2.8c1.6-1.4,1.5-1.9-0.5-3.3c-0.3,0.2-0.7,0.5-1.1,0.8c-0.6-0.9-1.2-1.6-1.9-2.6
		c-0.5,0.5-1.4,1-1.4,1.3c0.3,1.4-1,1.8-1.5,2.9c-0.4-0.7-0.7-1.1-1-1.6c0.5-0.3,1.1-0.5,1.3-0.9c0.2-0.4-0.2-0.9-0.2-1.4
		c0-0.2,0.3-0.5,0.5-0.7c0.7-0.5,1.5-0.8,2.3-1.3c0.2-0.1,0.6-0.5,0.6-0.6c-0.3-0.6-0.6-1.2-1-1.7c-0.1-0.1-0.8,0.1-1.1,0.3
		c-0.6,0.3-1.1,0.6-1.7,0.9c-0.7,0.5-1.3,0.6-1.9-0.3c-0.1-0.2-0.9-0.2-1.3-0.1c-0.3,0.1-0.7,0.9-0.6,1c0.8,1.1,0.1,1.6-0.8,2.1
		c-0.6,0.3-1.1,0.6-1.6,1c-0.7,0.5-1.3,0.5-1.9-0.2c-0.6-0.6-1.1-0.6-1.5,0.2C148.8,44.5,148.6,44.9,148.3,45.4z M27.3,120.1
		c-0.8,0.2-1.5,0.3-2.1,0.4c-2,0.4-4,0.9-6.1,1.3c-1.6,0.3-2.8-0.2-3.3-1.6c-0.7-1.8-0.3-2.9,1.2-3.8c0.2-0.1,0.4-0.3,0.4-0.5
		c-0.2-1.7-0.4-3.4-0.7-5c-2,0.5-3,1.5-3.3,3.6c-0.5,3.8,0.2,7.5,2.5,10.7c0.9,1.2,2.2,2,3.7,1.7c3-0.7,5.9-1.6,8.9-2.5
		C28.1,122.9,27.7,121.5,27.3,120.1z M102.4,174.5c0.3,1.6,1.3,2.5,2.7,2.8c3.7,0.8,7.3,0.3,10.5-1.8c1.2-0.8,1.7-2,1.3-3.4
		c-0.7-2.4-1.5-4.8-2.4-7.1c-0.1-0.2-0.5-0.5-0.7-0.4c-1.1,0.2-2.2,0.5-3.4,0.7c0.1,0.5,0.2,0.8,0.3,1.2c0.5,2,1.1,4.1,1.6,6.1
		c0.4,1.4,0,2.3-1.3,2.8c-1.5,0.6-2.8,0.2-3.6-0.9c-0.2-0.2-0.5-0.6-0.8-0.5C105.2,174.2,103.8,174.4,102.4,174.5z M9.5,89.3
		c-0.1,0-0.2,0.1-0.3,0.1c0.4,0.9,0.7,1.9,1.2,2.7c0.5,0.7,1.2,1.1,1.8,1.7c1.2,1.1,2.7,1.1,4,0c0.5-0.5,1.1-1,1.6-1.4
		c2.2-1.7,2.1-4.3,0-6.1c-0.2-0.2-0.5-0.4-0.7-0.6c-1.3-1.1-2.9-1.7-4.4-0.8C11.1,85.9,9.2,86.8,9.5,89.3z M174.6,93.5
		c2.8,0,5-1.8,5.1-4.2c0-2.5-2.4-4.8-5-4.8c-2.3,0-5.2,2.5-5.2,4.6C169.5,91.2,172.1,93.5,174.6,93.5z M163.1,113.6
		c-0.3,1.7-0.6,3.1-0.8,4.7c4.4,0.8,8.6,1.7,13,2.5c0.3-1.9,0.7-3.7,1-5.6C171.8,114.6,167.5,114.1,163.1,113.6z M119,163.2
		c1.6,3.8,3.1,7.4,4.7,11.1c1.6-0.6,3.2-1.1,4.8-1.7c-1.9-3.7-3.6-7.3-5.4-10.9C121.6,162.3,120.4,162.7,119,163.2z M160.1,54.3
		c-1.4-2.2-2.7-4.2-4-6.2c-0.1-0.2-0.7-0.2-1-0.1c-1.4,0.7-2.7,1.5-4,2.3c-0.4,0.2-0.9,0.8-0.8,1c0.3,0.6,0.9,1,1.3,1.5
		c0.6,0.7,1.9,1.6,1.8,2.2c-0.2,1.3,0.6,1.7,1.1,2.6C156.3,56.6,158.1,55.5,160.1,54.3z M125.9,13.7c-2-0.6-3.8-1.1-5.6-1.5
		c-0.2-0.1-0.7,0.3-0.8,0.6c-0.4,1.2-0.8,2.3-1.1,3.5c-0.1,0.3,0.3,0.8,0.5,0.9c1.6,0.5,3.1,0.9,4.7,1.3c0.3,0.1,0.8-0.2,0.9-0.5
		C125,16.7,125.4,15.3,125.9,13.7z"/>
	<path class="st0" d="M90.1,148.1c1.4-2.9,2.7-5.6,4-8.2c3.1-6.4,6.3-12.8,9.4-19.2c0.1-0.3,0.2-0.6,0.3-0.9c0.4-1.3,1.3-2,2.7-2.1
		c5.1-0.1,10.2-0.3,15.3-0.4c2.1-0.1,4.2-0.2,6.3-0.2c0.8,0,1.3-0.3,1.6-0.9c3.1-5.6,6.2-11.2,9.3-16.8c1.2-2.3,2.2-4.7,3.4-7.1
		c0.2-0.3,0.6-0.7,1-0.7c2.9-0.1,5.9,0,9,0c-0.3,1.1-0.5,2.1-0.8,3c-2.4,8.3-5.6,16.3-10.6,23.5c-1.3,1.9-2.6,3.7-4.1,5.4
		c-0.5,0.6-1.5,0.9-2.3,1.1c-5,1.1-10,1.2-15.1,1.4c-1.8,0.1-3.6,0-5.4-0.1c-1.6-0.1-2.9,0.7-3.3,2.5c-1.1,4.5-3.6,8.5-5.5,12.7
		c-0.9,2.1-2,4.2-3,6.3c-0.3,0.7-0.7,0.9-1.4,0.9C97.5,148.1,93.9,148.1,90.1,148.1z"/>
	<path class="st0" d="M39.6,80.1c1.5-4,3-7.7,4.4-11.5c0.4-1.1,0.9-2.1,1.2-3.2c0.3-0.9,0.7-1.1,1.6-1.1c9.6,0.1,19.1,0.1,28.7,0.2
		c7.6,0,15.1,0.1,22.7,0.1c0.2,0,0.5,0,0.8,0.1c-0.9,2-1.7,3.9-2.6,5.8c-1.2,2.8-2.5,5.5-3.7,8.3c-0.4,0.9-0.8,1.3-1.9,1.3
		c-16.7,0-33.4,0-50.1,0C40.5,80.1,40.1,80.1,39.6,80.1z"/>
	<path class="st0" d="M116.4,58c-5.1,0-9.2-4-9.2-9.1c0-5.2,4-9.4,9.1-9.4c5.2-0.1,9.5,4.1,9.5,9.3C125.8,54,121.7,58,116.4,58z"/>
	<path class="st0" d="M149.6,73.8c3.8,0,6.8,3,6.8,6.8c0,3.7-3.1,6.8-6.8,6.8c-3.9,0-7-3.1-7-6.8C142.7,76.8,145.8,73.8,149.6,73.8z
		"/>
	<path class="st0" d="M115,99.9c0.6-2.6,1.2-5.1,1.8-7.5c0.1-0.2,0.5-0.6,0.7-0.6c5.4,0,10.8,0,16.4,0c-0.7,2.7-1.4,5.2-2.1,7.7
		c-0.1,0.2-0.5,0.4-0.7,0.4C125.7,99.9,120.5,99.9,115,99.9z"/>
	<path d="M22.7,57.2c-1.3-1.5-1.3-1.5-0.1-3.2C23.9,55.1,23.9,55.5,22.7,57.2z"/>
	<path d="M26.5,54.7c1.7,0.5,1.7,0.6,0.7,1.6C26.9,55.7,26.7,55.2,26.5,54.7z"/>
	<path class="st0" d="M67.3,21c0.4,1.6-0.1,2.2-1.5,2c-0.3,0-0.7-0.3-0.7-0.4c0-0.3,0.1-0.7,0.4-0.9C66.1,21.4,66.7,21.2,67.3,21z"
		/>
	<path class="st0" d="M114,18.3c1.5,0.4,2.9,0.8,4.4,1.2c-0.2,1.2-0.2,1-2.4,0.7C114.7,20.1,114.8,19,114,18.3z"/>
	<path class="st0" d="M115.6,16.5c-1-0.2-2.1-0.4-3.2-0.6c0.9-0.8,1.7-1.5,2.6-2.2c0.2-0.2,0.6-0.2,0.9-0.3c0,0,0.2,0.4,0.2,0.4
		c-0.3,0.2-0.5,0.3-0.8,0.4c-0.1,0-0.2,0-0.4,0C114.9,15.2,113.9,16.3,115.6,16.5C115.6,16.5,115.6,16.5,115.6,16.5z"/>
	<path class="st0" d="M135.9,158.5c1.8,0.9,3.6,1.7,5.5,2.6c-1.7,1-3.2,1.9-5,3C136.2,162.1,136.1,160.3,135.9,158.5z"/>
	<path class="st0" d="M67.1,164.8c0.2,1.9,0.4,3.5,0.6,5.4c-1.9-0.6-3.6-1.2-5.6-1.9C63.9,167.1,65.4,166,67.1,164.8z"/>
	<path class="st0" d="M151.9,149.7c-1-0.8-1.8-1.4-2.8-2.2c0.9-0.9,1.8-1.7,2.7-2.5c0.8-0.6,1.7-1.1,2.6-0.2
		c0.8,0.9,0.2,1.7-0.3,2.5C153.4,148.2,152.7,148.9,151.9,149.7z"/>
	<path d="M162.2,47.5c0.3,0.5,0.6,0.8,0.9,1.4c-1,0.3-1.9,0.5-2.9,0.7C161,48.8,161.5,48.2,162.2,47.5z"/>
	<path class="st0" d="M156.7,53.3c-0.5,0.3-0.9,0.5-1.5,0.9c-0.5-0.8-1.1-1.6-1.5-2.3C155.1,50.3,155.5,50.5,156.7,53.3z"/>
	<path class="st0" d="M121.5,14.6c0.5,0.1,0.8,0.2,1.4,0.4c-0.3,0.4-0.4,0.7-0.7,0.9c-0.1,0.1-0.6-0.1-0.7-0.2
		C121.4,15.3,121.5,15,121.5,14.6z"/>
</g>
<g>
	<path d="M342,56c0.6,1.8,0.7,3.1,0.2,3.8c-0.5,0.7-1.5,1.1-3.1,1.4c-2.7,0.6-5.4,1.2-8.1,1.9c-2.7,0.7-5.9,1.6-9.6,2.9
		c-1.7,0.6-2.7,0.7-2.8,0.4c-0.1-0.3,0.7-0.8,2.3-1.4c3.5-1.6,6.4-3,8.9-4.3c2.4-1.3,4.4-2.4,5.9-3.5c0.9-0.7,1.3-1.4,1.2-2.3
		c-0.1-0.8-0.5-1.8-1.2-2.8c-0.5-0.8-1.2-1.4-2.3-2.1c-1.1-0.6-2.4-1.1-3.9-1.6c-1.5-0.4-3.2-0.7-5-0.9c-1.8-0.2-3.8-0.2-5.8,0.1
		c-6.6,0.6-13,1.7-19.3,3.4c0.5,0.1,1.3,0.5,2.6,1.1c3,1.8,5.4,3.5,7.3,5.3c1.9,1.8,3.9,4.1,5.9,7.1c0.7,1,1,1.7,0.9,2.2
		c-0.1,0.5-0.9,0.9-2.4,1.3c-2.2,0.6-4.8,1.3-7.9,2.1c-3.1,0.8-6,1.5-8.7,2.2c-0.2,0.3-0.2,0.6-0.3,0.9c0,0.3-0.1,0.5-0.3,0.9
		c-0.5,1.3-1,2.8-1.6,4.5c-0.6,1.8-1.3,3.6-2,5.4c-0.7,1.8-1.3,3.6-1.9,5.4c-0.6,1.8-1.1,3.3-1.5,4.5c2.4-0.9,4.8-1.8,7.2-2.6
		c2.3-0.8,5-1.8,8.1-2.9c-0.1-1.6-0.2-3.1-0.3-4.4c-0.1-1.3-0.3-2.5-0.5-3.4c-0.3-1.5-0.3-2.6,0-3.2c0.3-0.6,1.2-1,2.6-1.2
		c1.4-0.1,2.3,0.2,2.7,0.8c0.4,0.6,0.5,1.7,0.3,3.4c-0.2,0.8-0.3,1.7-0.3,2.8c-0.1,1.1-0.2,2.4-0.2,3.7c0.4-0.2,0.8-0.3,1.1-0.4
		c0.4-0.1,0.8-0.2,1.1-0.4c3.3-1.2,5.6-1.8,6.9-1.9c1.2-0.1,2.2,0.2,2.8,0.9c0.5,0.7,0.6,1.3,0.2,1.8c-0.4,0.5-1.8,1.3-4.1,2.3
		c-1.7,0.7-3.3,1.4-4.7,2.3c-1.4,0.9-2.5,1.7-3.5,2.6v0.8c0,2.2,0,4.3,0,6.3c0,2,0,4-0.1,5.9c3.9-0.7,7.5-1.1,10.9-1.3
		c3.4-0.2,6.1-0.3,8-0.3c3.2,0.1,5.7,0.4,7.6,0.8c1.9,0.5,3,1.2,3.6,2.3c0.6,1.3,0.5,2-0.2,2.4c-0.8,0.3-2.3,0.3-4.7-0.1
		c-4.5-0.8-8.8-1.1-12.9-1.1c-4.1,0-8.1,0.4-12.2,1.1c-0.2,12.6-0.3,22.1-0.6,28.5c-0.2,6.4-0.5,11-0.9,13.7
		c-0.2,1.8-0.5,2.8-0.9,2.9c-0.4,0.1-0.7-0.9-1-3c-0.2-1.3-0.3-3.1-0.5-5.3c-0.2-2.2-0.3-5.1-0.3-8.5c-0.1-3.5-0.1-7.2-0.1-11.3
		s0-9.4,0.1-16.1c-3.2,0.8-7.6,2.4-13.3,4.6s-12.5,5.4-20.6,9.4c-2.2,1.1-4.1,1.3-5.6,0.6c-1.5-0.7-2.3-1.8-2.3-3.5
		c0-1,0.1-1.9,0.4-2.8c0.3-0.8,0.8-1.6,1.5-2.4c0.7-0.8,1.7-1.5,3.1-2.2c1.3-0.7,3-1.4,5.2-2.2c6.4-2.3,12.2-5,17.2-8.1
		c5-3.1,9.9-6.7,14.7-11.1v-1.6c-1.3,0.5-2.5,1-3.8,1.4c-1.2,0.4-2.3,0.8-3.2,1.1c-2.7,1-4.6,1.9-5.9,2.8c-1.3,0.9-2.2,1.7-2.8,2.3
		c-0.5,0.5-1,0.8-1.7,0.9c-0.7,0.1-1.4-0.2-2.3-0.9c-1.1-0.8-1.6-1.8-1.5-2.8c0.1-1,0.8-2.8,2-5.3c1.1-2.2,2.3-5,3.6-8.3
		c1.2-3.4,2.4-6.8,3.5-10.3c-1.9,0.4-3.2,0.5-3.8,0.3c-0.6-0.2-1.2-0.7-1.5-1.4c-0.8-1.3-1.1-2-0.9-2.3c0.3-0.3,1.1-0.5,2.4-0.6
		c0.6-0.1,1.3-0.2,2.2-0.3c0.9-0.1,1.8-0.2,2.9-0.4c0.6-2.1,1.1-4,1.5-5.8c0.4-1.8,0.7-3.4,0.9-4.8c0.5-3.8,1.2-6.1,1.9-6.6
		c-7.8,2.1-15.2,5.2-22.3,9.4c-0.2,0.3-0.2,0.6-0.3,0.9c0,0.3-0.1,0.6-0.3,1c-0.6,2.1-1.3,4.1-2.1,6c-0.8,1.9-1.5,3.5-2.2,4.6
		c-0.6,1.3-1.1,2.7-1.6,4.3c-0.5,1.6-0.8,2.8-0.9,3.8c-0.2,1.6-0.6,2.5-1.2,2.8c-0.7,0.3-1.7-0.8-3-3.3c-0.4-0.9-0.4-2.1,0.1-3.5
		c0.4-1.4,1-2.6,1.8-3.5c1.1-1.4,2-3.2,2.9-5.3c0.9-2.1,1.7-4.5,2.6-7.1c1.3-4.2,1.2-7.6-0.3-10.4c-0.7-1.4-0.9-2.2-0.5-2.4
		c0.3-0.2,1,0.4,2.1,1.6c0.4,0.5,0.8,1.1,1.4,1.9c0.5,0.8,1.1,1.6,1.6,2.4c0.2,0.4,0.3,0.8,0.5,1.1c0.2,0.3,0.2,0.6,0.2,1.1
		c1.9-1.3,4.1-2.5,6.6-3.7c2.5-1.2,5.3-2.3,8.4-3.4c3-1,6.2-2,9.5-2.9c3.3-0.9,6.7-1.6,10.2-2.1c3.9-0.7,7.7-0.9,11.4-0.8
		c3.6,0.2,7.2,0.8,10.6,2c1.8,0.7,3.6,2,5.3,3.9C340.2,51.9,341.4,53.9,342,56z M268.6,122.5c7.8-3.8,14.8-6.9,21.1-9.4
		c6.2-2.5,11.1-4.3,14.6-5.3c0.1-1.7,0.1-3.4,0.1-5.1c0-1.7,0-3.5,0.1-5.5c-1.9,1.4-3.8,2.8-5.7,4.1c-1.9,1.3-3.8,2.6-5.5,3.6
		c-1.7,1.1-3.4,2-4.8,2.8c-1.5,0.8-2.7,1.4-3.7,1.7c-3.3,1.2-6.1,2.2-8.2,3.1s-3.9,1.7-5.3,2.4c-1.4,0.7-2.5,1.4-3.4,2
		c-0.9,0.6-1.7,1.3-2.4,2.1c-0.6,0.5-1,1.1-1.1,1.7c-0.1,0.6,0,1.1,0.3,1.6c0.3,0.4,0.8,0.7,1.5,0.8
		C266.7,123.3,267.6,123,268.6,122.5z M302.6,54.5c-1.3-0.7-2.2-0.9-2.8-0.6c-0.6,0.3-0.8,1.7-0.6,4.1c0.2,2.6-0.1,5.9-0.9,9.8
		c2-0.4,4.2-0.9,6.4-1.5c2.2-0.6,4.4-1.2,6.6-1.8c-1.1-2.2-2.5-4.2-4-6C305.8,56.7,304.2,55.4,302.6,54.5z"/>
	<path d="M472,98.3c1,1.1,1.2,1.9,0.8,2.4c-0.5,0.5-1.4,0.7-2.8,0.6c-6.2-0.9-11.9-1.6-17-2.1c-5.1-0.5-10.1-0.6-14.8-0.4
		c0,0.2,0,0.3-0.1,0.4c0,0.1-0.1,0.2-0.1,0.4c-1.3,4.1-2.6,7.8-3.9,11.1c-1.3,3.3-2.8,6.3-4.4,9c1.9,0.7,3.6,1.3,5.1,1.8
		c1.5,0.5,2.7,1,3.5,1.4c2.6,1.3,5.1,2.6,7.5,4.1c2.4,1.5,4.6,2.9,6.6,4.5c2,1.5,3.8,3,5.2,4.6c1.5,1.5,2.6,3,3.4,4.3
		c0.5,0.9,0.9,1.9,1,2.8c0.1,1,0.1,1.7-0.2,2.3c-0.2,0.6-0.6,0.9-1.1,0.8c-0.5,0-1.1-0.6-1.8-1.6c-0.8-1.1-2-2.5-3.9-4.2
		c-1.8-1.7-3.8-3.5-6.1-5.3c-2.2-1.8-4.5-3.5-6.8-5.1c-2.3-1.6-4.2-2.8-5.8-3.6c-1.3-0.7-2.7-1.3-4.1-1.9c-1.5-0.6-3.1-1.2-4.7-1.9
		c-3.6,5-8.2,9-13.6,11.8c-5.4,2.9-12.3,5.4-20.6,7.5c-2.6,0.7-3.8,0.7-3.8,0c0.1-0.7,1.4-1.3,3.9-2c6.9-1.9,12.7-4.4,17.5-7.4
		c4.8-3,9-6.8,12.6-11.3c-2.9-0.9-5.8-1.7-8.8-2.3c-3-0.6-5.8-1-8.5-1.1c-1.7-0.1-3-0.6-3.9-1.6c-0.8-1-0.6-2,0.7-3.1
		c1.3-1.1,2.4-2.3,3.2-3.8c0.9-1.4,1.7-3.2,2.6-5.4c0.1-0.2,0.1-0.3,0.2-0.4c0-0.1,0.1-0.3,0.2-0.4c-3.5,0.9-7.2,1.9-11,3.1
		c-3.9,1.1-8.1,2.4-12.6,3.9c-2.3,0.8-4.5,1.6-6.4,2.3c-1.9,0.7-3.2,1.2-4,1.6c-0.9,0.4-1.9,0.6-3,0.6c-1.1,0-2.3-0.6-3.6-1.8
		c-1.1-1-1.4-1.8-1.1-2.4c0.3-0.6,1.1-0.8,2.4-0.6c1.2,0.2,2.8,0,4.8-0.4c2-0.5,3.7-1,5.2-1.6c5-1.8,10.1-3.5,15.3-5
		c5.2-1.5,10.5-2.8,15.7-4c2.3-6,4.3-11.6,6-16.7c1.7-5.1,3.2-10.2,4.5-15.2c-3.3,2.2-6.2,4.1-8.8,5.8c-2.5,1.7-4.7,3.3-6.5,4.8
		c-1.8,1.5-3.4,2.8-4.6,3.9c-1.2,1.2-2.3,2.3-3.2,3.4c-1.7,2.2-3,3.3-3.7,3.4c-0.7,0.1-1.3-0.5-1.6-1.8c-0.5-1.4-0.5-2.6,0-3.6
		c0.5-1,1.4-2.3,3-3.9c1.7-1.9,3.1-4.7,4.1-8.5c1-3.7,1.5-7.6,1.6-11.6c0.1-0.9,0.4-1.4,1.1-1.4c0.6,0,1,0.7,1.2,2
		c0.4,2.4,0.5,4.7,0.5,6.8c-0.1,2.1-0.5,4-1.1,5.7c-0.8,1.9-1,3-0.8,3.2c0.2,0.2,0.8,0,1.6-0.7c2.1-1.7,4.8-3.7,8.1-6
		c3.3-2.3,6.8-4.7,10.7-7.1c0.2-0.9,0.5-1.8,0.7-2.8c0.2-0.9,0.4-1.8,0.6-2.8c0.5-2.3,0.9-4.1,1.1-5.5c0.2-1.4,0.3-2.5,0.3-3.3
		c0-0.8-0.2-1.4-0.6-1.7c-0.3-0.3-0.8-0.5-1.3-0.6c-1.3-0.2-2.3,0.3-3.1,1.3c-0.8,1-1.6,2.7-2.4,5c-0.4,0.9-0.7,1.4-1.1,1.5
		c-0.3,0.1-0.4-0.4-0.3-1.4c0.3-2.2,0.8-4.1,1.5-5.8c0.7-1.7,1.6-2.8,2.6-3.5c1.1-0.7,2.5-0.8,4-0.4c1.6,0.4,2.8,1.1,3.7,2
		c1.4,1.7,1.2,6.6-0.8,14.9c4.2-2.8,8.2-5.2,11.8-7.3c1.4-0.8,2.7-1.3,4-1.4c1.3-0.1,2.3,0.2,3.1,0.9c0.8,0.8,1.1,2,1.1,3.7
		c0,1.7-0.6,3.9-1.7,6.7c-1.8,4.5-4.1,8.4-6.8,11.5c-2.7,3.2-5.7,5.4-9.1,6.6c-1.1,0.3-1.6,0.1-1.4-0.6c0.2-0.7,0.7-1.1,1.6-1.3
		c0.8-0.2,1.8-0.7,2.8-1.7c1.1-1,2-2,2.8-3.1c0.4-0.5,0.9-1.3,1.5-2.4c0.6-1.1,1.3-2.3,2-3.7c0.7-1.4,1.3-2.8,2-4.3
		c0.6-1.5,1.2-3,1.6-4.4c0.8-2.8,0.9-4.3,0.2-4.4c-0.7-0.1-2.2,0.6-4.5,2.1c-2.3,1.5-4.6,2.9-6.6,4.3c-2.1,1.4-4.1,2.7-6,3.8
		c-1.3,4.5-2.8,9.7-4.7,15.6c-1.8,5.9-3.9,12.1-6.4,18.6c3.6-0.7,7.2-1.3,10.6-1.8s6.7-0.9,9.9-1.1c0.5-2.1,0.5-4,0.1-5.7
		c-0.4-1.7-1.3-3.3-2.7-4.7c-0.7-0.7-0.9-1.2-0.8-1.6c0.2-0.4,0.9-0.2,2.2,0.8c3.5,2.5,5,6.2,4.5,11c2.2-0.2,4.3-0.2,6.4-0.2
		c2,0,3.9,0.1,5.7,0.3c1,0.1,2.1,0.1,3.4,0.1s2.5-0.1,3.7-0.2c1.2-0.1,2.3-0.3,3.4-0.4c1.1-0.1,1.9-0.3,2.5-0.4c1-0.2,2.1,0,3.2,0.4
		C468.4,94.9,470,96.2,472,98.3z M425.9,118.3c3.5-5.3,6.4-11.8,8.6-19.3c-6.9,0.4-13.8,1.5-20.8,3.1c-0.5,1.3-0.9,2.5-1.4,3.8
		c-0.5,1.3-1,2.5-1.5,3.8c-0.8,1.9-1.2,3.2-1.1,3.8c0.1,0.6,0.5,1,1.2,1.1c2.2,0.4,4.6,1,7.2,1.6
		C420.7,116.8,423.3,117.5,425.9,118.3z"/>
</g>
</svg>
